<svg width="22" height="19" viewBox="0 0 22 19" fill="none" xmlns="http://www.w3.org/2000/svg">
<path d="M21.8036 4.67705C21.7024 4.53674 21.5673 4.42206 21.4099 4.34282C21.2524 4.26359 21.0773 4.22217 20.8994 4.22211H5.86614L4.59678 1.2983C4.43034 0.91327 4.14851 0.584332 3.78701 0.353196C3.42551 0.122059 3.00063 -0.00086663 2.56623 4.59919e-06H0V2.11106H2.56623L7.78449 14.1282C7.86808 14.3205 8.00908 14.4847 8.18975 14.6003C8.37042 14.7158 8.58267 14.7774 8.79977 14.7774H17.5995C18.0582 14.7774 18.4685 14.504 18.6302 14.0934L21.9301 5.64919C21.9925 5.4894 22.0136 5.31749 21.9915 5.14818C21.9695 4.97887 21.905 4.81721 21.8036 4.67705Z" fill="white"/>
<path d="M9.34966 19C10.2609 19 10.9996 18.2911 10.9996 17.4167C10.9996 16.5422 10.2609 15.8334 9.34966 15.8334C8.43842 15.8334 7.69971 16.5422 7.69971 17.4167C7.69971 18.2911 8.43842 19 9.34966 19Z" fill="white"/>
<path d="M17.0494 19C17.9606 19 18.6993 18.2911 18.6993 17.4167C18.6993 16.5422 17.9606 15.8334 17.0494 15.8334C16.1381 15.8334 15.3994 16.5422 15.3994 17.4167C15.3994 18.2911 16.1381 19 17.0494 19Z" fill="white"/>
</svg>
