<svg width="199" height="58" viewBox="0 0 199 58" fill="none" xmlns="http://www.w3.org/2000/svg">
<path d="M23.199 44.2786C24.7123 44.187 26.1954 43.897 27.6481 43.4086C29.1009 42.9507 30.5083 42.3707 31.8703 41.6686C33.2322 40.9665 34.5488 40.1881 35.82 39.3334C37.1214 38.5092 38.3472 37.6544 39.4973 36.7692C38.3775 37.746 37.2122 38.6618 36.0016 39.5165C34.791 40.4018 33.5198 41.1955 32.1881 41.8976C30.8866 42.5997 29.5398 43.1949 28.1475 43.6834C26.7553 44.1718 25.3176 44.5228 23.8346 44.7365C21.8976 44.9807 20.0059 44.9044 18.1597 44.5076C16.3437 44.1413 14.7548 43.2713 13.3928 41.8976C12.5453 42.2028 11.5617 42.4928 10.4418 42.7676C9.35224 43.0423 8.2324 43.1797 7.08228 43.1797C5.96243 43.2102 4.88798 43.0423 3.85894 42.676C2.82989 42.3402 1.98243 41.6992 1.31658 40.7528C0.802053 40.0813 0.453992 39.3486 0.272395 38.5549C0.0907985 37.7613 0 36.9676 0 36.1739C0 34.7086 0.226996 33.2586 0.680989 31.8239C1.13498 30.3586 1.72517 28.9544 2.45156 27.6113C3.23848 26.1765 4.17673 24.8486 5.26631 23.6276C6.35589 22.4065 7.53627 21.2923 8.80745 20.2849C10.0786 19.2776 11.4255 18.3923 12.848 17.6292C14.2705 16.8355 15.7384 16.1334 17.2517 15.5228C17.0096 15.3702 16.7675 15.1718 16.5253 14.9276C16.3135 14.6834 16.1621 14.3934 16.0713 14.0576H15.7989C15.0725 14.1186 14.21 14.0881 13.2112 13.966C12.2124 13.8439 11.2741 13.5997 10.3964 13.2334C9.54897 12.8365 8.83772 12.3023 8.26266 11.6307C7.71787 10.9286 7.49088 10.0281 7.58167 8.92915C7.70274 7.83021 8.08107 6.85337 8.71665 5.99863C9.35224 5.11337 10.124 4.35021 11.032 3.70915C11.94 3.03758 12.9388 2.4881 14.0284 2.06073C15.1179 1.63336 16.1621 1.31284 17.1609 1.09915C18.1294 0.88547 18.8861 0.793891 19.4309 0.824417C19.9757 0.854944 20.3389 0.93126 20.5205 1.05336C20.7626 1.206 20.8534 1.38915 20.7929 1.60284C20.7626 1.786 20.6415 1.96915 20.4297 2.15231C20.2178 2.30494 19.9757 2.44231 19.7033 2.56442C19.4309 2.656 19.2039 2.70179 19.0223 2.70179C19.1736 2.70179 19.3249 2.57968 19.4763 2.33547C19.6579 2.09126 19.7335 1.89284 19.7033 1.74021C19.6427 1.40442 19.3249 1.22126 18.7499 1.19073C18.2051 1.16021 17.5695 1.23652 16.8431 1.41968C16.147 1.57231 15.4357 1.77073 14.7094 2.01494C14.0132 2.25915 13.4684 2.4881 13.075 2.70179C12.3789 3.03758 11.7281 3.46494 11.1228 3.98389C10.5175 4.47231 10.003 5.03705 9.57924 5.6781C9.12525 6.38021 8.79232 7.08231 8.58046 7.78442C8.39886 8.456 8.36859 9.11231 8.48966 9.75336C8.61072 10.3639 8.88312 10.9286 9.30684 11.4476C9.76084 11.9665 10.4267 12.4092 11.3044 12.7755C12.0308 13.0807 12.7723 13.2944 13.529 13.4165C14.3159 13.5386 15.1028 13.5997 15.8897 13.5997C15.7384 12.9892 15.7233 12.3786 15.8443 11.7681C15.9957 11.127 16.1924 10.5318 16.4345 9.98231C16.7372 9.37179 17.0852 8.82231 17.4787 8.33389C17.9024 7.84547 18.3716 7.38758 18.8861 6.96021C19.673 6.28863 20.5961 5.60179 21.6554 4.89968C22.745 4.19758 23.88 3.58705 25.0604 3.0681C26.271 2.51863 27.4968 2.10652 28.7377 1.83179C29.9786 1.55705 31.1439 1.496 32.2335 1.64863C33.1112 1.77073 33.7165 2.15231 34.0494 2.79336C34.3824 3.40389 34.3975 4.15179 34.0948 5.03705C33.8527 5.76968 33.4592 6.44126 32.9145 7.05179C32.3697 7.66231 31.7946 8.21179 31.1893 8.70021C29.2522 10.257 27.1487 11.4934 24.8788 12.4092C22.6391 13.2944 20.0665 13.8134 17.1609 13.966C17.1912 14.027 17.2517 14.1339 17.3425 14.2865C17.4636 14.4086 17.5846 14.5307 17.7057 14.6528C17.8268 14.7749 17.9478 14.8818 18.0689 14.9734C18.2202 15.0649 18.3413 15.0955 18.4321 15.0649C18.9466 14.8513 19.4611 14.6681 19.9757 14.5155C20.5205 14.3628 21.0652 14.1949 21.61 14.0118C22.4878 13.7676 23.3806 13.5692 24.2886 13.4165C25.2268 13.2334 26.15 13.1265 27.0579 13.096C27.1487 13.096 27.3001 13.096 27.5119 13.096C27.7238 13.096 27.9357 13.1113 28.1475 13.1418C28.3594 13.1723 28.541 13.2334 28.6923 13.3249C28.8739 13.386 28.9647 13.5081 28.9647 13.6913C28.9647 14.1492 28.6923 14.546 28.1475 14.8818C27.633 15.2176 27.0277 15.5076 26.3316 15.7518C25.6354 15.9655 24.9393 16.1334 24.2432 16.2555C23.5471 16.3776 23.0325 16.4539 22.6996 16.4844C21.9127 16.5455 21.0955 16.5455 20.2481 16.4844C19.4006 16.4234 18.6137 16.2249 17.8873 15.8892C17.8268 15.8586 17.7814 15.8434 17.7511 15.8434C17.7208 15.8128 17.6754 15.8128 17.6149 15.8434C16.9188 16.0876 16.2378 16.4081 15.5719 16.8049C14.9364 17.1713 14.2856 17.5681 13.6198 17.9955C12.2578 18.8197 10.9715 19.766 9.76084 20.8344C8.55019 21.8723 7.44548 23.017 6.44669 24.2686C5.44791 25.4897 4.57019 26.8176 3.81354 28.2523C3.05688 29.6565 2.48183 31.1523 2.08837 32.7397C1.90677 33.4418 1.75544 34.1897 1.63437 34.9834C1.51331 35.777 1.48304 36.5555 1.54357 37.3186C1.60411 38.1123 1.77057 38.8449 2.04297 39.5165C2.34563 40.2186 2.82989 40.8139 3.49574 41.3023C4.1616 41.8213 4.88799 42.1723 5.67491 42.3555C6.46183 42.5386 7.27901 42.6149 8.12646 42.5844C8.97392 42.5844 9.82137 42.4776 10.6688 42.2639C11.5465 42.0807 12.3789 41.867 13.1658 41.6228C12.3183 40.707 11.6979 39.6539 11.3044 38.4634C10.9412 37.3034 10.7596 36.0976 10.7596 34.846C10.7596 33.2892 10.9866 31.7628 11.4406 30.267C11.8946 28.7713 12.5302 27.367 13.3474 26.0544C14.1646 24.7418 15.1482 23.5665 16.2983 22.5286C17.4484 21.4602 18.7348 20.6207 20.1573 20.0102C20.8231 19.7049 21.5646 19.4455 22.3818 19.2318C23.199 19.0181 24.0011 18.9113 24.788 18.9113C25.6052 18.8807 26.377 19.0028 27.1033 19.2776C27.8297 19.5523 28.4502 20.0255 28.9647 20.697C29.4187 21.277 29.6911 21.9181 29.7819 22.6202C29.903 23.2918 29.903 23.9939 29.7819 24.7265C29.6911 25.4286 29.5095 26.146 29.2371 26.8786C28.995 27.5807 28.7377 28.2523 28.4653 28.8934C27.7692 30.3586 26.9217 31.7018 25.923 32.9228C24.9242 34.1439 23.8346 35.2734 22.6542 36.3113C21.4133 37.3797 20.0967 38.3413 18.7045 39.196C17.3425 40.0813 15.92 40.8444 14.437 41.4855C15.5871 42.6455 16.9339 43.4239 18.4775 43.8207C20.0513 44.2481 21.6252 44.4007 23.199 44.2786ZM22.5634 4.99126C22.0186 5.35758 21.383 5.86126 20.6567 6.50231C19.9303 7.14337 19.2644 7.86073 18.6591 8.65442C18.084 9.41758 17.6149 10.2265 17.2517 11.0813C16.9188 11.936 16.8431 12.7755 17.0247 13.5997C19.2644 13.5997 21.4587 13.1265 23.6076 12.1802C25.7868 11.2339 27.8146 10.0281 29.6911 8.56284C30.2964 8.07442 30.8866 7.57073 31.4617 7.05179C32.067 6.50231 32.5815 5.89179 33.0052 5.22021C33.429 4.5181 33.5954 3.83126 33.5046 3.15968C33.4138 2.4881 32.8539 2.076 31.8249 1.92336C31.0379 1.80126 30.2359 1.81652 29.4187 1.96915C28.6318 2.09126 27.8297 2.30494 27.0125 2.61021C26.2256 2.91547 25.4538 3.28179 24.6972 3.70915C23.9405 4.106 23.2293 4.53336 22.5634 4.99126ZM27.5119 13.2792C26.0894 13.2792 24.6669 13.4776 23.2444 13.8744C21.8522 14.2713 20.3843 14.7444 18.8407 15.2939C19.3552 15.5992 19.9303 15.8128 20.5659 15.9349C21.2317 16.0265 21.8976 16.0723 22.5634 16.0723C23.2595 16.0418 23.9405 15.9655 24.6064 15.8434C25.2722 15.6907 25.8927 15.5228 26.4678 15.3397C26.6494 15.2786 26.9369 15.1565 27.3303 14.9734C27.7541 14.7597 28.087 14.546 28.3291 14.3323C28.6015 14.0881 28.7075 13.8744 28.6469 13.6913C28.5864 13.4776 28.2081 13.3402 27.5119 13.2792ZM14.21 41.2565C15.8141 40.6765 17.3728 39.837 18.8861 38.7381C20.4297 37.6697 21.837 36.4181 23.1082 34.9834C24.4097 33.5181 25.5144 31.946 26.4224 30.267C27.3606 28.5576 28.0113 26.8023 28.3745 25.0013C28.5259 24.3297 28.5561 23.6581 28.4653 22.9865C28.4048 22.2844 28.1627 21.6586 27.7389 21.1092C27.2244 20.4986 26.5737 20.0713 25.7868 19.827C25.0301 19.5828 24.2735 19.476 23.5168 19.5065C21.9732 19.5676 20.5053 20.0102 19.1131 20.8344C17.7208 21.6586 16.5253 22.6507 15.5265 23.8107C14.5278 25.0013 13.7408 26.3139 13.1658 27.7486C12.5907 29.1528 12.1973 30.6334 11.9854 32.1902C11.7735 33.747 11.8189 35.3344 12.1216 36.9523C12.4243 38.6007 13.1204 40.0355 14.21 41.2565ZM31.9366 30.5876C31.755 31.1065 31.6188 31.5644 31.528 31.9613C31.4675 32.3581 31.407 32.6939 31.3464 32.9686C31.2859 33.3044 31.2708 33.5944 31.301 33.8386C31.301 34.4186 31.4524 34.9528 31.755 35.4413C32.0577 35.8992 32.5571 36.0365 33.2532 35.8534C33.7677 35.7313 34.252 35.487 34.706 35.1207C35.1902 34.7544 35.6291 34.3423 36.0226 33.8844C36.4463 33.396 36.8397 32.8923 37.2029 32.3734C37.5661 31.8544 37.8839 31.366 38.1563 30.9081V31.3202C38.0655 31.4423 37.8385 31.7781 37.4753 32.3276C37.1424 32.877 36.7035 33.4723 36.1588 34.1134C35.614 34.7239 34.9784 35.2886 34.252 35.8076C33.5559 36.296 32.8143 36.5402 32.0274 36.5402C31.3313 36.5402 30.8168 36.2502 30.4839 35.6702C30.1509 35.0597 30.045 34.4034 30.1661 33.7013C30.2266 33.1823 30.3628 32.5107 30.5746 31.6865C30.8168 30.8623 31.2859 29.687 31.982 28.1607C32.5268 26.9397 33.1927 25.5049 33.9796 23.8565C34.7665 22.1776 35.5988 20.4986 36.4765 18.8197C37.3845 17.1407 38.3077 15.5381 39.2459 14.0118C40.2144 12.4855 41.1224 11.2186 41.9699 10.2113C42.6962 9.38705 43.3167 8.76126 43.8312 8.33389C44.3458 7.90652 44.7695 7.66231 45.1024 7.60126C45.4656 7.54021 45.7229 7.63179 45.8742 7.876C46.0255 8.08968 46.0861 8.42547 46.0558 8.88337C45.965 10.2876 45.6775 11.6765 45.1932 13.0502C44.7089 14.4239 44.1036 15.767 43.3772 17.0797C42.6508 18.3618 41.8488 19.5828 40.9711 20.7428C40.1236 21.9028 39.2913 22.956 38.4741 23.9023C37.6872 24.8486 36.9608 25.6576 36.295 26.3292C35.6291 27.0007 35.1297 27.5044 34.7968 27.8402C34.3125 28.2981 33.8434 28.756 33.3894 29.2139C32.9354 29.6718 32.4511 30.1297 31.9366 30.5876ZM39.8361 13.6913C39.6545 13.966 39.3972 14.4239 39.0643 15.0649C38.7314 15.6755 38.3682 16.3928 37.9747 17.217C37.5813 18.0413 37.1575 18.9265 36.7035 19.8728C36.2496 20.8192 35.8107 21.7655 35.387 22.7118C34.3882 24.9402 33.2986 27.367 32.1182 29.9923C33.6618 28.527 35.0994 27.077 36.4312 25.6423C37.7931 24.177 39.0038 22.6813 40.0631 21.1549C41.1224 19.5981 42.0304 17.9955 42.787 16.347C43.5437 14.6681 44.1188 12.8976 44.5122 11.0355C44.6938 10.2723 44.7543 9.66179 44.6938 9.20389C44.6635 8.71547 44.4819 8.51705 44.149 8.60863C43.8161 8.70021 43.3016 9.14284 42.6054 9.93652C41.9093 10.6997 40.9862 11.9513 39.8361 13.6913ZM44.796 31.5492C44.7052 31.6407 44.4933 31.9613 44.1604 32.5107C43.8274 33.0602 43.3886 33.6402 42.8438 34.2507C42.299 34.8613 41.6785 35.4107 40.9824 35.8992C40.2863 36.3876 39.5448 36.6318 38.7579 36.6318H38.5309C38.2585 36.6013 37.9861 36.4944 37.7137 36.3113C37.4413 36.0976 37.2143 35.777 37.0327 35.3497C36.8814 34.9223 36.8208 34.3881 36.8511 33.747C36.9116 33.0755 37.1538 32.2665 37.5775 31.3202C37.9104 30.557 38.4249 29.8244 39.1211 29.1223C39.8172 28.4202 40.589 27.947 41.4364 27.7028C42.072 27.5197 42.6622 27.5197 43.207 27.7028C43.782 27.886 44.0544 28.2523 44.0242 28.8018C43.9939 29.3207 43.5399 29.9923 42.6622 30.8165C41.7845 31.6407 40.2258 32.6023 37.9861 33.7013C37.9558 34.3728 38.0466 34.8613 38.2585 35.1665C38.5006 35.4413 38.7427 35.6244 38.9849 35.716C39.2875 35.8381 39.6204 35.8686 39.9836 35.8076C40.4376 35.716 40.8916 35.5023 41.3456 35.1665C41.8299 34.8002 42.2839 34.3881 42.7076 33.9302C43.1313 33.4723 43.5248 32.9992 43.888 32.5107C44.2512 31.9918 44.569 31.5034 44.8414 31.0455L44.796 31.5492ZM41.4818 27.886C40.6949 28.2218 40.0593 28.6949 39.575 29.3055C39.1211 29.8855 38.773 30.4807 38.5309 31.0913C38.319 31.7018 38.1677 32.236 38.0769 32.6939C38.0163 33.1213 37.9861 33.3349 37.9861 33.3349C39.5297 32.6634 40.6798 31.9613 41.4364 31.2286C42.1931 30.496 42.6622 29.8549 42.8438 29.3055C43.0254 28.7255 42.98 28.2981 42.7076 28.0234C42.4352 27.7181 42.0266 27.6723 41.4818 27.886ZM53.4427 31.4118V31.8239C53.14 32.2818 52.8374 32.7244 52.5347 33.1518C52.2321 33.5792 51.884 34.0065 51.4905 34.4339C51.1576 34.7697 50.7641 35.1207 50.3102 35.487C49.8864 35.8534 49.4173 36.1892 48.9028 36.4944C48.5396 37.8986 48.0402 39.2876 47.4046 40.6613C46.769 42.0655 46.088 43.3934 45.3616 44.6449C44.6352 45.927 43.8937 47.1176 43.1371 48.2165C42.3502 49.346 41.6389 50.3381 41.0033 51.1928C40.3375 52.0476 39.7775 52.7344 39.3235 53.2534C38.8393 53.8028 38.5366 54.1234 38.4156 54.2149C37.6589 54.9476 36.8568 55.5886 36.0094 56.1381C35.1619 56.7181 34.4053 57.0997 33.7394 57.2828C33.0433 57.466 32.4834 57.3744 32.0597 57.0081C31.6359 56.6723 31.4543 55.9549 31.5149 54.856C31.6057 53.4518 32.0143 51.956 32.7406 50.3686C33.4368 48.7813 34.3448 47.2397 35.4646 45.7439C36.5844 44.2481 37.8708 42.8592 39.3235 41.577C40.746 40.3255 42.2291 39.3028 43.7727 38.5092C44.2569 38.2649 44.8622 37.9597 45.5886 37.5934C46.315 37.227 47.0263 36.8607 47.7224 36.4944C47.7224 36.4944 47.7527 36.3723 47.8132 36.1281C47.904 35.8839 47.9948 35.5939 48.0856 35.2581C48.2067 34.9223 48.3277 34.556 48.4488 34.1592C48.5698 33.7623 48.6758 33.4265 48.7666 33.1518C48.4337 33.7318 48.0099 34.2813 47.4954 34.8002C47.0111 35.3192 46.4966 35.7465 45.9518 36.0823C45.4373 36.3876 44.9379 36.586 44.4537 36.6776C43.9997 36.7692 43.6365 36.6928 43.3641 36.4486C43.0917 36.2044 42.9706 35.7618 43.0009 35.1207C43.0311 34.4797 43.2733 33.5944 43.7273 32.4649C43.9391 31.9765 44.2115 31.4881 44.5444 30.9997C44.9076 30.4807 45.286 30.0228 45.6794 29.626C46.1032 29.1986 46.5269 28.8323 46.9506 28.527C47.4046 28.1913 47.8283 27.9318 48.2218 27.7486C48.6152 27.596 49.0238 27.5502 49.4476 27.6113C49.9016 27.6723 50.295 27.8707 50.6279 28.2065C50.9306 27.8097 51.1879 27.6113 51.3997 27.6113C51.6116 27.6113 51.7629 27.7181 51.8537 27.9318C51.9748 28.1455 52.0353 28.4202 52.0353 28.756C52.0353 29.0918 51.9899 29.3665 51.8991 29.5802C51.8689 29.397 51.8235 29.2444 51.7629 29.1223C51.6419 28.8781 51.4754 28.8781 51.2635 29.1223C50.6279 30.0992 50.174 31.2134 49.9016 32.4649C49.6594 33.7165 49.3568 34.9223 48.9936 36.0823C49.6594 35.6855 50.3253 35.1818 50.9911 34.5713C51.5057 34.0523 51.9748 33.5028 52.3985 32.9228C52.8222 32.3428 53.1703 31.8392 53.4427 31.4118ZM46.9052 39.0586C46.9657 38.8755 47.0717 38.5244 47.223 38.0055C47.4046 37.4865 47.5257 37.1202 47.5862 36.9065C46.7387 37.3339 45.8913 37.7613 45.0438 38.1886C44.1964 38.6465 43.3187 39.1807 42.4107 39.7913C41.9567 40.0965 41.4119 40.5544 40.7763 41.1649C40.1105 41.7755 39.4143 42.4776 38.6879 43.2713C37.9616 44.0955 37.2503 44.996 36.5542 45.9728C35.8278 46.9497 35.2073 47.957 34.6928 48.9949C34.148 50.0634 33.7394 51.1318 33.467 52.2002C33.1644 53.2992 33.0736 54.3676 33.1946 55.4055C33.2552 55.8634 33.5124 56.0923 33.9664 56.0923C34.3902 56.1228 34.9198 55.9855 35.5554 55.6802C36.191 55.3749 36.8568 54.9323 37.553 54.3523C38.2491 53.7723 38.8847 53.1313 39.4597 52.4292C39.5505 52.307 39.8835 51.8949 40.4585 51.1928C41.0336 50.4907 41.7146 49.5444 42.5015 48.3539C43.2581 47.1939 44.0299 45.8202 44.8168 44.2328C45.634 42.676 46.3302 40.9513 46.9052 39.0586ZM44.3629 33.0144C44.0299 33.9913 43.9694 34.7239 44.1813 35.2123C44.4234 35.6702 44.8017 35.8686 45.3162 35.8076C45.861 35.716 46.4815 35.3649 47.1776 34.7544C47.8737 34.1134 48.5244 33.1976 49.1298 32.007C49.3114 31.4881 49.4778 30.9844 49.6292 30.496C49.8108 30.0076 49.9621 29.5955 50.0832 29.2597C50.1134 28.4965 49.9016 28.0386 49.4476 27.886C49.0238 27.7028 48.5093 27.7944 47.904 28.1607C47.2987 28.4965 46.6631 29.0765 45.9972 29.9007C45.3314 30.7249 44.7866 31.7628 44.3629 33.0144ZM63.4036 31.3202C63.2523 31.5644 62.9647 31.9765 62.541 32.5565C62.1476 33.1365 61.6936 33.7318 61.179 34.3423C60.6645 34.9528 60.1197 35.5023 59.5447 35.9907C58.9999 36.4486 58.5156 36.6776 58.0919 36.6776C57.7287 36.6776 57.4866 36.4792 57.3655 36.0823C57.2747 35.6855 57.3504 34.9681 57.5925 33.9302L58.0011 32.5565C57.7287 33.1976 57.3352 33.8081 56.8207 34.3881C56.3062 34.9376 55.7765 35.4107 55.2317 35.8076C54.6869 36.1739 54.1573 36.4334 53.6428 36.586C53.1282 36.7081 52.7196 36.6623 52.417 36.4486C52.1143 36.2349 51.963 35.8076 51.963 35.1665C51.963 34.5255 52.2051 33.6097 52.6894 32.4192C52.9012 31.9307 53.1736 31.4423 53.5066 30.9539C53.8698 30.4349 54.2481 29.9618 54.6415 29.5344C55.0653 29.107 55.489 28.7407 55.9127 28.4355C56.3667 28.0997 56.8056 27.8555 57.2293 27.7028C57.653 27.5502 58.107 27.5044 58.5913 27.5655C59.1058 27.6265 59.4841 27.886 59.7263 28.3439C60.0289 27.8555 60.3013 27.596 60.5434 27.5655C60.7856 27.5044 60.9672 27.5655 61.0882 27.7486C61.2396 27.9318 61.3304 28.176 61.3606 28.4813C61.3909 28.756 61.3606 28.9849 61.2698 29.1681C61.2698 29.0155 61.2547 28.8934 61.2244 28.8018C61.1639 28.5881 61.0126 28.5881 60.7704 28.8018C60.4375 29.0765 60.15 29.4886 59.9079 30.0381C59.6657 30.5876 59.4539 31.137 59.2723 31.6865C59.0907 32.236 58.9393 32.7397 58.8183 33.1976C58.7275 33.6249 58.6669 33.8844 58.6367 33.976C58.4551 34.6476 58.4248 35.1207 58.5459 35.3955C58.6669 35.6397 58.8788 35.716 59.1815 35.6244C59.5144 35.5328 59.8776 35.3039 60.2711 34.9376C60.6645 34.5713 61.058 34.1592 61.4514 33.7013C61.8449 33.2128 62.2081 32.7397 62.541 32.2818C62.8739 31.7934 63.1312 31.3813 63.3128 31.0455L63.4036 31.3202ZM58.5459 30.9539C59.1209 29.7328 59.2723 28.8628 58.9999 28.3439C58.7275 27.8249 58.2583 27.6418 57.5925 27.7944C56.9266 27.947 56.1851 28.4507 55.3679 29.3055C54.5507 30.1602 53.8698 31.366 53.325 32.9228C52.9618 33.9913 52.9164 34.7544 53.1888 35.2123C53.4914 35.6702 53.9303 35.8228 54.5053 35.6702C55.1107 35.5176 55.7917 35.0597 56.5483 34.2965C57.305 33.5028 57.9708 32.3886 58.5459 30.9539ZM72.3423 31.5492C72.1304 31.8849 71.8429 32.3276 71.4797 32.8771C71.1165 33.396 70.7079 33.9302 70.2539 34.4797C69.7999 34.9986 69.3308 35.4718 68.8465 35.8992C68.3623 36.296 67.9083 36.5402 67.4845 36.6318C67.0305 36.7234 66.7279 36.6318 66.5765 36.357C66.4252 36.0518 66.3798 35.6702 66.4404 35.2123C66.5311 34.7239 66.6976 34.1134 66.9397 33.3807C67.2121 32.6176 67.4694 31.8849 67.7115 31.1828C67.9537 30.4807 68.1201 29.8549 68.2109 29.3055C68.3017 28.756 68.2109 28.4202 67.9385 28.2981C67.7569 28.2676 67.4543 28.3744 67.0305 28.6186C66.6371 28.8323 66.2134 29.1071 65.7594 29.4428C65.3356 29.7786 64.9422 30.1144 64.579 30.4502C64.2158 30.786 63.9888 31.0149 63.898 31.137C63.7164 31.4423 63.5045 31.8849 63.2624 32.4649C63.0203 33.0144 62.7781 33.5944 62.536 34.2049C62.3242 34.7849 62.1123 35.3192 61.9004 35.8076C61.7188 36.2655 61.5826 36.5402 61.4918 36.6318C61.3708 36.7844 61.3556 36.6776 61.4464 36.3113C61.507 35.9144 61.6129 35.3955 61.7642 34.7544C61.9458 34.1134 62.1577 33.4113 62.3998 32.6481C62.642 31.8849 62.8841 31.1981 63.1262 30.5876C63.1867 30.4044 63.2624 30.206 63.3532 29.9923C63.4743 29.7481 63.5651 29.5344 63.6256 29.3513C63.7164 29.1376 63.7921 28.9086 63.8526 28.6644C63.9131 28.5118 63.898 28.4049 63.8072 28.3439C63.7467 28.2828 63.671 28.2676 63.5802 28.2981C63.4591 28.3286 63.3229 28.3897 63.1716 28.4813C63.8677 27.9013 64.3369 27.6265 64.579 27.657C64.8211 27.6876 64.927 27.8555 64.8968 28.1607C64.8968 28.466 64.806 28.8476 64.6244 29.3055C64.473 29.7328 64.3369 30.0839 64.2158 30.3586C64.3369 30.1755 64.6244 29.9007 65.0784 29.5344C65.5324 29.1681 66.0318 28.817 66.5765 28.4813C67.1213 28.1455 67.6359 27.886 68.1201 27.7028C68.6346 27.5197 68.9827 27.5197 69.1643 27.7028C69.3762 27.9165 69.4518 28.2523 69.3913 28.7102C69.361 29.1681 69.2702 29.687 69.1189 30.267C68.9676 30.847 68.7708 31.4728 68.5287 32.1444C68.3169 32.7855 68.1201 33.4265 67.9385 34.0676C67.7569 34.8002 67.7267 35.2734 67.8477 35.487C67.9688 35.7007 68.1655 35.7465 68.4379 35.6244C68.7103 35.5023 69.0432 35.2428 69.4367 34.846C69.8302 34.4492 70.2085 34.0218 70.5717 33.5639C70.9651 33.106 71.3283 32.6481 71.6613 32.1902C71.9942 31.7018 72.2363 31.3202 72.3877 31.0455L72.3423 31.5492ZM95.318 21.796C96.7102 21.7044 98.0419 21.3839 99.3131 20.8344C100.584 20.2544 101.75 19.5065 102.809 18.5907C102.082 19.537 101.265 20.2849 100.357 20.8344C99.4493 21.3839 98.4657 21.8113 97.4063 22.1165C96.3773 22.3913 95.2877 22.5744 94.1376 22.666C92.9875 22.727 91.8222 22.727 90.6419 22.666C89.2799 22.6049 87.9028 22.5134 86.5105 22.3913C85.1485 22.2692 83.7109 22.2081 82.1976 22.2081C81.3501 22.2081 80.4876 22.2081 79.6098 22.2081C78.7624 22.2081 77.8998 22.2234 77.0221 22.2539C76.9616 22.4065 76.8859 22.5439 76.7951 22.666C76.7043 22.7881 76.6286 22.9255 76.5681 23.0781C76.0536 24.0855 75.5692 25.1081 75.1152 26.146C74.6612 27.1534 74.2223 28.1913 73.7986 29.2597C73.7078 29.4428 73.5716 29.8092 73.39 30.3586C73.2084 30.8776 73.0117 31.4576 72.7998 32.0986C72.6182 32.7397 72.4669 33.3655 72.3458 33.976C72.2247 34.556 72.1945 34.9986 72.255 35.3039C72.3458 35.6092 72.5425 35.7313 72.8452 35.6702C73.1781 35.5786 73.6927 35.1513 74.3888 34.3881C74.9033 33.8692 75.3724 33.3044 75.7963 32.6939C76.2503 32.0834 76.6286 31.5339 76.9313 31.0455V31.4576C76.6892 31.8544 76.3411 32.3581 75.8871 32.9686C75.4632 33.5486 74.9941 34.1134 74.4796 34.6628C74.0256 35.1818 73.5565 35.6397 73.0722 36.0365C72.6182 36.4334 72.2247 36.647 71.8918 36.6776C71.5892 36.7386 71.3773 36.586 71.2562 36.2197C71.1654 35.8228 71.2411 35.0902 71.4832 34.0218C71.907 32.0071 72.5123 30.0381 73.2992 28.1149C74.1164 26.1918 74.9941 24.2534 75.9325 22.2997C75.8417 22.2997 75.7509 22.3149 75.66 22.3455C75.5692 22.3455 75.4784 22.3455 75.3876 22.3455C73.2387 22.4981 71.12 22.7728 69.0317 23.1697C66.9433 23.5665 64.749 24.0855 62.4488 24.7265C62.6606 24.6655 62.8574 24.6044 63.039 24.5434C63.2206 24.4518 63.4022 24.3755 63.5838 24.3144C67.7302 23.0323 71.9372 22.1623 76.2049 21.7044C76.7194 20.6055 77.2945 19.4455 77.9301 18.2244C78.5657 16.9728 79.2466 15.7365 79.973 14.5155C80.7297 13.2944 81.5317 12.1344 82.3792 11.0355C83.2266 9.906 84.1195 8.89863 85.0578 8.01336C85.4512 7.61652 85.7841 7.4181 86.0565 7.4181C86.3592 7.38758 86.5862 7.46389 86.7375 7.64705C86.9191 7.79968 87.0251 8.01336 87.0553 8.2881C87.0856 8.56284 87.0553 8.79179 86.9645 8.97494C86.9645 8.85284 86.9494 8.746 86.9191 8.65442C86.8586 8.47126 86.7073 8.44073 86.4651 8.56284C85.5874 9.11231 84.7097 9.906 83.832 10.9439C82.9543 11.9818 82.1219 13.1265 81.335 14.3781C80.5481 15.5992 79.8066 16.8507 79.1104 18.1328C78.4446 19.4149 77.8544 20.5749 77.3399 21.6128C77.6728 21.6128 78.0209 21.6128 78.3841 21.6128C78.7473 21.5823 79.2769 21.5518 79.973 21.5213C81.2442 21.4907 82.5003 21.506 83.7412 21.567C85.0123 21.6281 86.2835 21.7044 87.5547 21.796C88.8562 21.857 90.1425 21.9028 91.4136 21.9334C92.7151 21.9639 94.0165 21.9181 95.318 21.796ZM116.755 2.61021C115.938 3.86179 115.135 5.12863 114.349 6.41073C113.592 7.66231 112.835 8.92915 112.079 10.2113C111.231 11.6765 110.384 13.1418 109.536 14.607C108.719 16.0723 107.902 17.5376 107.085 19.0028C105.723 21.4449 104.452 23.7344 103.271 25.8713C102.091 28.0081 100.971 30.1602 99.9116 32.3276C99.5787 32.9992 99.2458 33.6555 98.9128 34.2965C98.5799 34.9376 98.2924 35.6092 98.0503 36.3113C98.02 36.3723 97.9897 36.4334 97.9595 36.4944C97.9595 36.5555 97.9443 36.6165 97.9141 36.6776C98.247 35.1513 98.701 33.7165 99.276 32.3734C99.8814 31.0302 100.487 29.7023 101.092 28.3897C101.788 26.8328 102.515 25.3065 103.271 23.8107C104.058 22.3149 104.86 20.8192 105.677 19.3234C107.312 16.4234 108.976 13.5997 110.671 10.8523C112.366 8.10494 114.258 5.51021 116.346 3.0681C116.407 3.00705 116.467 2.93073 116.528 2.83915C116.619 2.74758 116.694 2.67126 116.755 2.61021ZM163.374 5.90705C165.069 5.60179 166.689 5.15915 168.232 4.57915C169.776 3.96863 171.304 3.02231 172.818 1.74021C172 2.56442 171.107 3.26652 170.139 3.84652C168.838 4.60968 167.46 5.20494 166.008 5.63231C164.555 6.05968 163.072 6.38021 161.558 6.59389C160.318 6.74652 159.092 6.80758 157.881 6.77705C156.701 6.74652 155.505 6.63968 154.295 6.45652C153.084 6.27336 151.873 6.04442 150.663 5.76968C149.452 5.49494 148.226 5.20494 146.985 4.89968C146.925 4.89968 146.758 5.06758 146.486 5.40336C146.214 5.70863 145.926 6.09021 145.623 6.5481C145.321 6.97547 145.033 7.40284 144.761 7.83021C144.488 8.22705 144.307 8.48652 144.216 8.60863C143.338 10.0128 142.506 11.4476 141.719 12.9128C140.932 14.3781 140.175 15.8586 139.449 17.3544C140.054 17.1713 140.66 16.9728 141.265 16.7592C141.87 16.5149 142.476 16.2707 143.081 16.0265C143.142 15.996 143.172 15.9349 143.172 15.8434C143.202 15.7518 143.217 15.6755 143.217 15.6144C143.278 15.3702 143.323 15.1413 143.353 14.9276C143.414 14.7139 143.505 14.4849 143.626 14.2407C143.959 13.4165 144.443 12.6534 145.079 11.9513C145.744 11.2186 146.471 10.6386 147.258 10.2113C147.47 10.0892 147.712 9.98231 147.984 9.89073C148.287 9.76863 148.574 9.69231 148.847 9.66179C149.149 9.63126 149.437 9.66179 149.709 9.75336C149.982 9.81442 150.209 9.96705 150.39 10.2113C150.632 10.5165 150.723 10.8523 150.663 11.2186C150.602 11.5849 150.481 11.9055 150.299 12.1802C149.543 13.2486 148.559 14.0728 147.349 14.6528C146.138 15.2328 144.927 15.767 143.717 16.2555C143.656 16.286 143.58 16.3165 143.49 16.347C143.399 16.3776 143.353 16.4234 143.353 16.4844C143.353 17.0339 143.429 17.5681 143.58 18.087C143.762 18.606 144.065 19.0792 144.488 19.5065C145.003 20.0255 145.578 20.3918 146.214 20.6055C146.879 20.8192 147.56 20.9565 148.257 21.0176C147.651 21.0481 147.046 20.987 146.441 20.8344C145.835 20.6818 145.275 20.407 144.761 20.0102C144.246 19.5828 143.853 19.0639 143.58 18.4534C143.308 17.8123 143.172 17.156 143.172 16.4844C142.566 16.7286 141.946 16.9423 141.31 17.1255C140.705 17.3086 140.085 17.4765 139.449 17.6292C139.298 17.6902 139.222 17.736 139.222 17.7665C139.101 18.0413 138.965 18.316 138.813 18.5907C138.692 18.8655 138.586 19.0944 138.496 19.2776C137.921 20.4376 137.27 21.7502 136.544 23.2155C135.847 24.6502 135.06 26.146 134.183 27.7028C133.335 29.2597 132.412 30.8165 131.413 32.3734C130.415 33.9302 129.355 35.3802 128.235 36.7234C127.146 38.097 125.981 39.3028 124.74 40.3407C123.499 41.3786 122.212 42.157 120.881 42.676C120.336 42.8897 119.746 43.0576 119.11 43.1797C118.505 43.3018 117.884 43.3476 117.249 43.317C116.644 43.317 116.053 43.1949 115.478 42.9507C114.933 42.737 114.434 42.4013 113.98 41.9434C113.405 41.3634 112.996 40.707 112.754 39.9744C112.512 39.2418 112.376 38.4786 112.346 37.6849C112.315 36.8913 112.391 36.1128 112.573 35.3497C112.754 34.556 112.981 33.8081 113.254 33.106C113.859 31.5797 114.661 30.1755 115.66 28.8934C116.689 27.6113 117.854 26.4818 119.156 25.5049C119.882 24.9555 120.76 24.406 121.789 23.8565C122.848 23.307 123.953 22.8186 125.103 22.3913C126.253 21.9334 127.403 21.5823 128.553 21.3381C129.734 21.0634 130.793 20.9565 131.731 21.0176C132.337 21.0786 132.685 21.216 132.775 21.4297C132.896 21.6434 132.851 21.8876 132.639 22.1623C132.458 22.4065 132.17 22.6507 131.777 22.8949C131.413 23.1086 131.05 23.2613 130.687 23.3528C130.717 23.3528 130.793 23.2918 130.914 23.1697C131.065 23.0476 131.186 22.9102 131.277 22.7576C131.368 22.5744 131.398 22.4065 131.368 22.2539C131.368 22.0707 131.247 21.9334 131.005 21.8418C130.672 21.7197 130.339 21.6586 130.006 21.6586C129.673 21.6586 129.34 21.6892 129.007 21.7502C128.795 21.7807 128.447 21.857 127.963 21.9792C127.479 22.0707 126.919 22.2081 126.283 22.3913C125.648 22.5744 124.952 22.8034 124.195 23.0781C123.469 23.3528 122.742 23.6734 122.016 24.0397C120.563 24.7418 119.231 25.6728 118.021 26.8328C116.81 27.9928 115.826 29.2902 115.07 30.7249C114.706 31.3965 114.389 32.1292 114.116 32.9228C113.874 33.7165 113.708 34.5407 113.617 35.3955C113.526 36.2197 113.526 37.0439 113.617 37.8681C113.708 38.7228 113.935 39.5165 114.298 40.2492C114.601 40.8597 115.009 41.3176 115.524 41.6228C116.038 41.9586 116.583 42.1876 117.158 42.3097C117.763 42.4318 118.384 42.447 119.019 42.3555C119.685 42.2944 120.336 42.1723 120.972 41.9892C122.455 41.5007 123.786 40.7223 124.967 39.6539C126.177 38.5855 127.267 37.3644 128.235 35.9907C129.204 34.617 130.097 33.167 130.914 31.6407C131.731 30.0839 132.503 28.5728 133.229 27.1076C134.016 25.5813 134.788 24.0702 135.545 22.5744C136.332 21.0786 137.119 19.5676 137.905 18.0413C136.544 18.3465 135.166 18.606 133.774 18.8197C132.382 19.0028 130.99 19.0792 129.597 19.0486C128.357 19.0486 127.116 18.896 125.875 18.5907C124.634 18.2855 123.605 17.797 122.788 17.1255C121.97 16.4539 121.456 15.5992 121.244 14.5613C121.062 13.4928 121.395 12.2107 122.243 10.7149C122.818 9.76863 123.529 8.92915 124.377 8.19652C125.224 7.46389 126.147 6.82284 127.146 6.27337C128.145 5.72389 129.189 5.28126 130.278 4.94547C131.398 4.57915 132.503 4.27389 133.593 4.02968C135.62 3.60231 137.694 3.34284 139.812 3.25126C141.931 3.12915 144.034 3.29705 146.123 3.75494L147.349 4.02968C147.833 3.54126 148.347 3.0681 148.892 2.61021C149.437 2.15231 150.042 1.66389 150.708 1.14494C150.98 0.93126 151.268 0.778628 151.571 0.687047C151.873 0.564942 152.115 0.534415 152.297 0.595467C152.509 0.656521 152.66 0.809154 152.751 1.05336C152.842 1.26705 152.827 1.58758 152.706 2.01494C152.494 2.59494 152.115 3.08336 151.571 3.48021C151.631 3.44968 151.677 3.32758 151.707 3.11389C151.767 2.86968 151.798 2.67126 151.798 2.51863C151.798 2.06073 151.616 1.86231 151.253 1.92336C150.89 1.95389 150.466 2.10652 149.982 2.38126C149.497 2.62547 149.028 2.93073 148.574 3.29705C148.151 3.66336 147.848 3.9381 147.666 4.12126C149.059 4.48758 150.39 4.82336 151.661 5.12863C152.933 5.43389 154.189 5.6781 155.43 5.86126C156.671 6.04442 157.942 6.15126 159.243 6.18179C160.545 6.21231 161.922 6.12073 163.374 5.90705ZM146.668 10.9897C145.881 11.5086 145.169 12.2107 144.534 13.096C143.928 13.9507 143.535 14.8818 143.353 15.8892C143.686 15.7365 144.201 15.477 144.897 15.1107C145.623 14.7139 146.35 14.2713 147.076 13.7828C147.803 13.2944 148.438 12.7907 148.983 12.2718C149.528 11.7223 149.8 11.2186 149.8 10.7607C149.8 10.4249 149.618 10.2265 149.255 10.1655C148.922 10.1044 148.65 10.1044 148.438 10.1655C148.105 10.2265 147.787 10.3334 147.485 10.486C147.212 10.6386 146.94 10.8065 146.668 10.9897ZM138.087 17.6749C139.237 15.4465 140.478 13.2334 141.81 11.0355C143.142 8.80705 144.715 6.73126 146.531 4.8081C144.958 4.47231 143.384 4.25863 141.81 4.16705C140.266 4.07547 138.692 4.07547 137.088 4.16705C135.484 4.28915 133.895 4.50284 132.321 4.8081C130.748 5.11337 129.234 5.61705 127.781 6.31915C127.055 6.65494 126.344 7.05179 125.648 7.50968C124.952 7.96758 124.331 8.50179 123.786 9.11231C123.484 9.47863 123.181 9.906 122.878 10.3944C122.606 10.8523 122.379 11.356 122.197 11.9055C122.046 12.4244 121.955 12.9586 121.925 13.5081C121.895 14.0576 122.001 14.5918 122.243 15.1107C122.818 16.1181 123.726 16.8813 124.967 17.4002C126.238 17.8886 127.6 18.2092 129.053 18.3618C130.536 18.4839 132.019 18.4839 133.502 18.3618C134.985 18.2397 136.256 18.0718 137.315 17.8581C137.376 17.8581 137.527 17.8276 137.769 17.7665C137.89 17.736 137.996 17.7055 138.087 17.6749ZM148.114 31.5492C147.872 31.9765 147.539 32.4649 147.115 33.0144C146.692 33.5639 146.223 34.1134 145.708 34.6628C145.194 35.2428 144.679 35.7465 144.165 36.1739C143.68 36.5707 143.272 36.7386 142.939 36.6776C142.606 36.7081 142.379 36.5249 142.258 36.1281C142.137 35.7007 142.197 34.9681 142.439 33.9302L142.576 33.3807C142.666 33.0144 142.848 32.4649 143.12 31.7323C142.787 32.1597 142.379 32.6786 141.895 33.2892C141.41 33.8997 140.911 34.4797 140.396 35.0292C139.882 35.5481 139.367 35.9755 138.853 36.3113C138.338 36.6471 137.884 36.7692 137.491 36.6776C137.067 36.5555 136.87 36.2349 136.901 35.716C136.901 35.197 137.007 34.617 137.218 33.976C137.43 33.3349 137.688 32.7092 137.99 32.0986C138.293 31.4576 138.52 30.9692 138.671 30.6334C138.823 30.2976 139.004 29.916 139.216 29.4886C139.458 29.0613 139.594 28.7713 139.625 28.6186C139.655 28.466 139.625 28.3744 139.534 28.3439C139.473 28.2828 139.398 28.2676 139.307 28.2981C139.186 28.3286 139.05 28.3744 138.898 28.4355C139.564 27.886 140.033 27.6113 140.306 27.6113C140.578 27.6113 140.714 27.7639 140.714 28.0692C140.744 28.3439 140.669 28.7102 140.487 29.1681C140.336 29.5955 140.185 29.9618 140.033 30.267C139.307 31.7323 138.777 32.9534 138.444 33.9302C138.142 34.8765 138.157 35.487 138.49 35.7618C138.641 35.9144 138.944 35.8076 139.398 35.4413C139.852 35.0749 140.336 34.617 140.85 34.0676C141.365 33.4876 141.864 32.9076 142.349 32.3276C142.833 31.717 143.181 31.2592 143.393 30.9539C143.544 30.6181 143.68 30.267 143.801 29.9007C143.953 29.5039 144.134 29.0918 144.346 28.6644C144.679 27.9928 144.967 27.6113 145.209 27.5197C145.481 27.3976 145.693 27.4281 145.844 27.6113C146.026 27.7944 146.132 28.0539 146.162 28.3897C146.223 28.7255 146.207 28.9849 146.117 29.1681C146.086 29.046 146.056 28.9392 146.026 28.8476C145.965 28.7865 145.905 28.7407 145.844 28.7102C145.814 28.6797 145.738 28.7102 145.617 28.8018C145.284 29.0765 144.997 29.4886 144.755 30.0381C144.513 30.5876 144.301 31.1523 144.119 31.7323C143.938 32.2818 143.786 32.7855 143.665 33.2434C143.574 33.6707 143.514 33.9149 143.484 33.976C143.181 35.2886 143.362 35.8381 144.028 35.6244C144.361 35.5328 144.664 35.3497 144.936 35.0749C145.209 34.7697 145.466 34.4949 145.708 34.2507C146.162 33.7623 146.616 33.2128 147.07 32.6023C147.554 31.9918 147.918 31.4728 148.16 31.0455L148.114 31.5492ZM154.834 31.6865C154.592 32.0528 154.259 32.526 153.835 33.106C153.412 33.6555 152.958 34.2049 152.473 34.7544C151.989 35.3039 151.49 35.777 150.975 36.1739C150.491 36.5402 150.052 36.7234 149.659 36.7234C149.416 36.7234 149.22 36.6165 149.068 36.4028C148.917 36.1892 148.902 35.8228 149.023 35.3039C149.174 34.6323 149.386 33.9913 149.659 33.3807C149.931 32.7397 150.249 32.0681 150.612 31.366C150.733 31.0913 150.824 30.786 150.884 30.4502C150.975 30.0839 150.869 29.7786 150.567 29.5344C150.506 29.4734 150.34 29.3513 150.067 29.1681C149.825 28.9849 149.689 28.9086 149.659 28.9392C149.568 29.1528 149.416 29.4428 149.205 29.8092C148.993 30.1449 148.781 30.4807 148.569 30.8165C148.297 31.2134 148.024 31.6407 147.752 32.0986C147.691 32.1597 147.631 32.1749 147.57 32.1444C147.54 32.0834 147.54 32.0223 147.57 31.9613C147.57 31.9613 147.661 31.8239 147.843 31.5492C148.024 31.2744 148.221 30.9692 148.433 30.6334C148.645 30.267 148.841 29.916 149.023 29.5802C149.235 29.2444 149.371 29.0002 149.432 28.8476C148.705 28.4813 148.342 28.0692 148.342 27.6113C148.342 27.1228 148.478 26.7413 148.751 26.4665C149.023 26.1918 149.326 26.1155 149.659 26.2376C149.992 26.3292 150.128 26.7565 150.067 27.5197C150.037 27.7639 149.992 28.0081 149.931 28.2523C149.87 28.466 149.81 28.6186 149.749 28.7102C149.961 28.8323 150.219 28.9544 150.521 29.0765C150.824 29.1681 151.096 29.2749 151.338 29.397C151.611 29.5192 151.792 29.6718 151.883 29.8549C151.974 30.0076 152.004 30.1755 151.974 30.3586C151.974 30.5418 151.929 30.7249 151.838 30.9081C151.777 31.0607 151.717 31.1981 151.656 31.3202C151.384 31.8392 151.142 32.3886 150.93 32.9686C150.718 33.5181 150.521 34.0981 150.34 34.7086C150.158 35.5328 150.203 35.9449 150.476 35.9449C150.748 35.9449 151.127 35.7313 151.611 35.3039C152.095 34.846 152.625 34.2507 153.2 33.5181C153.805 32.7855 154.32 32.0834 154.743 31.4118L154.834 31.6865ZM149.522 28.6186C149.643 28.4049 149.734 28.1607 149.795 27.886C149.886 27.6113 149.886 27.3518 149.795 27.1076C149.643 26.8939 149.492 26.8328 149.341 26.9244C149.189 27.016 149.084 27.1686 149.023 27.3823C148.962 27.596 148.962 27.8402 149.023 28.1149C149.084 28.3592 149.25 28.527 149.522 28.6186ZM164.116 31.5492C163.904 31.8849 163.617 32.3276 163.253 32.8771C162.89 33.396 162.482 33.9302 162.028 34.4797C161.574 34.9986 161.104 35.4718 160.62 35.8992C160.136 36.296 159.682 36.5402 159.258 36.6318C158.804 36.7234 158.502 36.6318 158.35 36.357C158.199 36.0518 158.154 35.6702 158.214 35.2123C158.305 34.7239 158.471 34.1134 158.713 33.3807C158.986 32.6176 159.243 31.8849 159.485 31.1828C159.727 30.4807 159.894 29.8549 159.985 29.3055C160.075 28.756 159.985 28.4202 159.712 28.2981C159.531 28.2676 159.228 28.3744 158.804 28.6186C158.411 28.8323 157.987 29.1071 157.533 29.4428C157.109 29.7786 156.716 30.1144 156.353 30.4502C155.99 30.786 155.763 31.0149 155.672 31.137C155.49 31.4423 155.278 31.8849 155.036 32.4649C154.794 33.0144 154.552 33.5944 154.31 34.2049C154.098 34.7849 153.886 35.3192 153.674 35.8076C153.493 36.2655 153.356 36.5402 153.266 36.6318C153.145 36.7844 153.129 36.6776 153.22 36.3113C153.281 35.9144 153.387 35.3955 153.538 34.7544C153.72 34.1134 153.931 33.4113 154.174 32.6481C154.416 31.8849 154.658 31.1981 154.9 30.5876C154.96 30.4044 155.036 30.206 155.127 29.9923C155.248 29.7481 155.339 29.5344 155.399 29.3513C155.49 29.1376 155.566 28.9086 155.626 28.6644C155.687 28.5118 155.672 28.4049 155.581 28.3439C155.52 28.2828 155.445 28.2676 155.354 28.2981C155.233 28.3286 155.097 28.3897 154.945 28.4813C155.641 27.9013 156.111 27.6265 156.353 27.657C156.595 27.6876 156.701 27.8555 156.671 28.1607C156.671 28.466 156.58 28.8476 156.398 29.3055C156.247 29.7328 156.111 30.0839 155.99 30.3586C156.111 30.1755 156.398 29.9007 156.852 29.5344C157.306 29.1681 157.805 28.817 158.35 28.4813C158.895 28.1455 159.41 27.886 159.894 27.7028C160.408 27.5197 160.756 27.5197 160.938 27.7028C161.15 27.9165 161.226 28.2523 161.165 28.7102C161.135 29.1681 161.044 29.687 160.893 30.267C160.741 30.847 160.545 31.4728 160.302 32.1444C160.091 32.7855 159.894 33.4265 159.712 34.0676C159.531 34.8002 159.5 35.2734 159.621 35.487C159.743 35.7007 159.939 35.7465 160.212 35.6244C160.484 35.5023 160.817 35.2428 161.21 34.846C161.604 34.4492 161.982 34.0218 162.345 33.5639C162.739 33.106 163.102 32.6481 163.435 32.1902C163.768 31.7018 164.01 31.3202 164.161 31.0455L164.116 31.5492ZM166.435 25.0928C166.163 25.0318 166.011 24.9097 165.981 24.7265C165.981 24.5434 166.027 24.3602 166.117 24.177C166.238 23.9939 166.375 23.8413 166.526 23.7192C166.708 23.597 166.874 23.5513 167.025 23.5818C167.146 23.6123 167.237 23.7192 167.298 23.9023C167.389 24.0855 167.419 24.2839 167.389 24.4976C167.358 24.7113 167.267 24.8944 167.116 25.047C166.965 25.1692 166.738 25.1844 166.435 25.0928ZM168.523 31.0455V31.4576C168.281 31.8849 167.948 32.3734 167.525 32.9228C167.101 33.4723 166.632 34.0218 166.117 34.5713C165.028 35.8228 164.105 36.4944 163.348 36.586C163.015 36.6165 162.803 36.4181 162.712 35.9907C162.622 35.5634 162.682 34.846 162.894 33.8386C162.955 33.5028 163.06 33.0755 163.212 32.5565C163.363 32.1292 163.545 31.5949 163.757 30.9539C163.999 30.2823 164.332 29.5039 164.755 28.6186C165.119 27.947 165.421 27.5655 165.663 27.4739C165.936 27.3518 166.148 27.3823 166.299 27.5655C166.45 27.7181 166.541 27.9623 166.571 28.2981C166.632 28.6339 166.617 28.8934 166.526 29.0765C166.496 28.9544 166.465 28.8476 166.435 28.756C166.375 28.6949 166.314 28.6492 166.254 28.6186C166.223 28.5881 166.148 28.6186 166.027 28.7102C165.694 28.9849 165.406 29.397 165.164 29.9465C164.922 30.496 164.71 31.0607 164.528 31.6407C164.347 32.1902 164.195 32.6939 164.074 33.1518C163.984 33.5792 163.938 33.8234 163.938 33.8844C163.817 34.5865 163.817 35.0292 163.938 35.2123C164.059 35.3649 164.271 35.3955 164.574 35.3039C164.937 35.1818 165.3 34.9528 165.663 34.617C166.057 34.2507 166.435 33.8692 166.798 33.4723C167.162 33.0449 167.494 32.6176 167.797 32.1902C168.1 31.7628 168.342 31.3813 168.523 31.0455ZM191.481 21.796C192.873 21.7044 194.205 21.3839 195.476 20.8344C196.747 20.2544 197.913 19.5065 198.972 18.5907C198.246 19.537 197.428 20.2849 196.52 20.8344C195.612 21.3839 194.629 21.8113 193.57 22.1165C192.54 22.3913 191.451 22.5744 190.301 22.666C189.151 22.727 187.985 22.727 186.805 22.666C185.443 22.6049 184.066 22.5134 182.674 22.3913C181.312 22.2692 179.874 22.2081 178.361 22.2081C177.513 22.2081 176.651 22.2081 175.773 22.2081C174.926 22.2081 174.063 22.2234 173.185 22.2539C173.125 22.4065 173.049 22.5439 172.958 22.666C172.867 22.7881 172.792 22.9255 172.731 23.0781C172.217 24.0855 171.732 25.1081 171.278 26.146C170.824 27.1534 170.386 28.1913 169.962 29.2597C169.871 29.4428 169.735 29.8092 169.553 30.3586C169.372 30.8776 169.175 31.4576 168.963 32.0986C168.782 32.7397 168.63 33.3655 168.509 33.976C168.388 34.556 168.358 34.9986 168.418 35.3039C168.509 35.6092 168.706 35.7313 169.009 35.6702C169.341 35.5786 169.856 35.1513 170.552 34.3881C171.067 33.8692 171.536 33.3044 171.959 32.6939C172.413 32.0834 172.792 31.5339 173.094 31.0455V31.4576C172.852 31.8544 172.504 32.3581 172.05 32.9686C171.627 33.5486 171.157 34.1134 170.643 34.6628C170.189 35.1818 169.72 35.6397 169.236 36.0365C168.782 36.4334 168.388 36.647 168.055 36.6776C167.752 36.7386 167.541 36.586 167.42 36.2197C167.329 35.8228 167.404 35.0902 167.647 34.0218C168.07 32.0071 168.676 30.0381 169.463 28.1149C170.28 26.1918 171.157 24.2534 172.096 22.2997C172.005 22.2997 171.914 22.3149 171.823 22.3455C171.732 22.3455 171.642 22.3455 171.551 22.3455C169.402 22.4981 167.283 22.7728 165.195 23.1697C163.107 23.5665 160.912 24.0855 158.612 24.7265C158.824 24.6655 159.021 24.6044 159.202 24.5434C159.384 24.4518 159.565 24.3755 159.747 24.3144C163.894 23.0323 168.101 22.1623 172.368 21.7044C172.883 20.6055 173.458 19.4455 174.093 18.2244C174.729 16.9728 175.41 15.7365 176.136 14.5155C176.893 13.2944 177.695 12.1344 178.542 11.0355C179.39 9.906 180.283 8.89863 181.221 8.01336C181.614 7.61652 181.947 7.4181 182.22 7.4181C182.522 7.38758 182.749 7.46389 182.901 7.64705C183.082 7.79968 183.188 8.01336 183.218 8.2881C183.249 8.56284 183.218 8.79179 183.128 8.97494C183.128 8.85284 183.113 8.746 183.082 8.65442C183.022 8.47126 182.87 8.44073 182.628 8.56284C181.751 9.11231 180.873 9.906 179.995 10.9439C179.117 11.9818 178.285 13.1265 177.498 14.3781C176.711 15.5992 175.97 16.8507 175.274 18.1328C174.608 19.4149 174.018 20.5749 173.503 21.6128C173.836 21.6128 174.184 21.6128 174.547 21.6128C174.91 21.5823 175.44 21.5518 176.136 21.5213C177.407 21.4907 178.663 21.506 179.904 21.567C181.176 21.6281 182.447 21.7044 183.718 21.796C185.019 21.857 186.306 21.9028 187.577 21.9334C188.878 21.9639 190.18 21.9181 191.481 21.796ZM182.385 31.5492C182.143 31.9765 181.81 32.4649 181.387 33.0144C180.963 33.5639 180.494 34.1134 179.979 34.6628C179.465 35.2428 178.95 35.7465 178.436 36.1739C177.951 36.5707 177.543 36.7386 177.21 36.6776C176.877 36.7081 176.65 36.5249 176.529 36.1281C176.408 35.7007 176.468 34.9681 176.71 33.9302L176.847 33.3807C176.937 33.0144 177.119 32.4649 177.391 31.7323C177.059 32.1597 176.65 32.6786 176.166 33.2892C175.681 33.8997 175.182 34.4797 174.668 35.0292C174.153 35.5481 173.638 35.9755 173.124 36.3113C172.609 36.6471 172.155 36.7692 171.762 36.6776C171.338 36.5555 171.142 36.2349 171.172 35.716C171.172 35.197 171.278 34.617 171.49 33.976C171.701 33.3349 171.959 32.7092 172.261 32.0986C172.564 31.4576 172.791 30.9692 172.942 30.6334C173.094 30.2976 173.275 29.916 173.487 29.4886C173.729 29.0613 173.865 28.7713 173.896 28.6186C173.926 28.466 173.896 28.3744 173.805 28.3439C173.744 28.2828 173.669 28.2676 173.578 28.2981C173.457 28.3286 173.321 28.3744 173.169 28.4355C173.835 27.886 174.304 27.6113 174.577 27.6113C174.849 27.6113 174.985 27.7639 174.985 28.0692C175.016 28.3439 174.94 28.7102 174.758 29.1681C174.607 29.5955 174.456 29.9618 174.304 30.267C173.578 31.7323 173.048 32.9534 172.715 33.9302C172.413 34.8765 172.428 35.487 172.761 35.7618C172.912 35.9144 173.215 35.8076 173.669 35.4413C174.123 35.0749 174.607 34.617 175.122 34.0676C175.636 33.4876 176.135 32.9076 176.62 32.3276C177.104 31.717 177.452 31.2592 177.664 30.9539C177.815 30.6181 177.951 30.267 178.072 29.9007C178.224 29.5039 178.405 29.0918 178.617 28.6644C178.95 27.9928 179.238 27.6113 179.48 27.5197C179.752 27.3976 179.964 27.4281 180.115 27.6113C180.297 27.7944 180.403 28.0539 180.433 28.3897C180.494 28.7255 180.479 28.9849 180.388 29.1681C180.358 29.046 180.327 28.9392 180.297 28.8476C180.237 28.7865 180.176 28.7407 180.115 28.7102C180.085 28.6797 180.01 28.7102 179.888 28.8018C179.556 29.0765 179.268 29.4886 179.026 30.0381C178.784 30.5876 178.572 31.1523 178.39 31.7323C178.209 32.2818 178.057 32.7855 177.936 33.2434C177.845 33.6707 177.785 33.9149 177.755 33.976C177.452 35.2886 177.634 35.8381 178.299 35.6244C178.632 35.5328 178.935 35.3497 179.207 35.0749C179.48 34.7697 179.737 34.4949 179.979 34.2507C180.433 33.7623 180.887 33.2128 181.341 32.6023C181.825 31.9918 182.189 31.4728 182.431 31.0455L182.385 31.5492ZM189.105 31.6865C188.863 32.0528 188.53 32.526 188.106 33.106C187.683 33.6555 187.229 34.2049 186.744 34.7544C186.26 35.3039 185.761 35.777 185.246 36.1739C184.762 36.5402 184.323 36.7234 183.93 36.7234C183.688 36.7234 183.491 36.6165 183.34 36.4028C183.188 36.1892 183.173 35.8228 183.294 35.3039C183.445 34.6323 183.657 33.9913 183.93 33.3807C184.202 32.7397 184.52 32.0681 184.883 31.366C185.004 31.0913 185.095 30.786 185.156 30.4502C185.246 30.0839 185.14 29.7786 184.838 29.5344C184.777 29.4734 184.611 29.3513 184.338 29.1681C184.096 28.9849 183.96 28.9086 183.93 28.9392C183.839 29.1528 183.688 29.4428 183.476 29.8092C183.264 30.1449 183.052 30.4807 182.84 30.8165C182.568 31.2134 182.295 31.6407 182.023 32.0986C181.962 32.1597 181.902 32.1749 181.841 32.1444C181.811 32.0834 181.811 32.0223 181.841 31.9613C181.841 31.9613 181.932 31.8239 182.114 31.5492C182.295 31.2744 182.492 30.9692 182.704 30.6334C182.916 30.267 183.113 29.916 183.294 29.5802C183.506 29.2444 183.642 29.0002 183.703 28.8476C182.976 28.4813 182.613 28.0692 182.613 27.6113C182.613 27.1228 182.749 26.7413 183.022 26.4665C183.294 26.1918 183.597 26.1155 183.93 26.2376C184.263 26.3292 184.399 26.7565 184.338 27.5197C184.308 27.7639 184.263 28.0081 184.202 28.2523C184.142 28.466 184.081 28.6186 184.021 28.7102C184.232 28.8323 184.49 28.9544 184.792 29.0765C185.095 29.1681 185.367 29.2749 185.609 29.397C185.882 29.5192 186.063 29.6718 186.154 29.8549C186.245 30.0076 186.275 30.1755 186.245 30.3586C186.245 30.5418 186.2 30.7249 186.109 30.9081C186.048 31.0607 185.988 31.1981 185.927 31.3202C185.655 31.8392 185.413 32.3886 185.201 32.9686C184.989 33.5181 184.792 34.0981 184.611 34.7086C184.429 35.5328 184.475 35.9449 184.747 35.9449C185.019 35.9449 185.398 35.7313 185.882 35.3039C186.366 34.846 186.896 34.2507 187.471 33.5181C188.076 32.7855 188.591 32.0834 189.014 31.4118L189.105 31.6865ZM183.794 28.6186C183.915 28.4049 184.005 28.1607 184.066 27.886C184.157 27.6113 184.157 27.3518 184.066 27.1076C183.915 26.8939 183.763 26.8328 183.612 26.9244C183.461 27.016 183.355 27.1686 183.294 27.3823C183.234 27.596 183.234 27.8402 183.294 28.1149C183.355 28.3592 183.521 28.527 183.794 28.6186ZM195.89 31.5492C195.799 31.6407 195.587 31.9613 195.255 32.5107C194.922 33.0602 194.483 33.6402 193.938 34.2507C193.393 34.8613 192.773 35.4107 192.077 35.8992C191.381 36.3876 190.639 36.6318 189.852 36.6318H189.625C189.353 36.6013 189.08 36.4944 188.808 36.3113C188.535 36.0976 188.308 35.777 188.127 35.3497C187.976 34.9223 187.915 34.3881 187.945 33.747C188.006 33.0755 188.248 32.2665 188.672 31.3202C189.005 30.557 189.519 29.8244 190.215 29.1223C190.911 28.4202 191.683 27.947 192.531 27.7028C193.166 27.5197 193.756 27.5197 194.301 27.7028C194.876 27.886 195.149 28.2523 195.118 28.8018C195.088 29.3207 194.634 29.9923 193.756 30.8165C192.879 31.6407 191.32 32.6023 189.08 33.7013C189.05 34.3728 189.141 34.8613 189.353 35.1665C189.595 35.4413 189.837 35.6244 190.079 35.716C190.382 35.8381 190.715 35.8686 191.078 35.8076C191.532 35.716 191.986 35.5023 192.44 35.1665C192.924 34.8002 193.378 34.3881 193.802 33.9302C194.226 33.4723 194.619 32.9992 194.982 32.5107C195.345 31.9918 195.663 31.5034 195.936 31.0455L195.89 31.5492ZM192.576 27.886C191.789 28.2218 191.154 28.6949 190.669 29.3055C190.215 29.8855 189.867 30.4807 189.625 31.0913C189.413 31.7018 189.262 32.236 189.171 32.6939C189.111 33.1213 189.08 33.3349 189.08 33.3349C190.624 32.6634 191.774 31.9613 192.531 31.2286C193.287 30.496 193.756 29.8549 193.938 29.3055C194.12 28.7255 194.074 28.2981 193.802 28.0234C193.529 27.7181 193.121 27.6723 192.576 27.886Z" fill="white"/>
</svg>
