<svg width="17" height="17" viewBox="0 0 17 17" fill="none" xmlns="http://www.w3.org/2000/svg">
<path d="M6.80447 0.169447C3.48839 0.821934 0.818146 3.50525 0.16877 6.83322C-0.812036 11.8515 2.60482 16.3142 7.23384 16.9874C7.90841 17.0902 8.51733 16.5507 8.51733 15.8658L8.51734 15.8422C8.51734 15.2816 8.11139 14.8136 7.56492 14.7296C4.57176 14.2673 2.27055 11.6619 2.27055 8.52524C2.27055 4.86034 5.41488 1.91844 9.13336 2.27817C12.3817 2.59405 14.7613 5.52814 14.7613 8.80304V9.3786C14.7613 10.1654 14.1247 10.805 13.3419 10.805C12.5591 10.805 11.9221 10.1654 11.9221 9.3786V5.1011C11.9221 4.78601 11.668 4.53053 11.354 4.53053L10.2192 4.53066C9.96019 4.53066 9.75079 4.70845 9.68266 4.94666C8.80086 4.51392 7.75796 4.36326 6.62882 4.7648C5.25378 5.25381 4.21158 6.50678 4.01287 7.95743C3.67636 10.4153 5.56747 12.5163 7.94816 12.5163C8.88638 12.5163 9.73767 12.1764 10.4176 11.6302C11.2692 12.7449 12.7322 13.3643 14.2996 12.9654C15.9383 12.5842 17.0313 10.9743 16.9993 9.30391V8.55954C16.9993 3.24561 12.2479 -0.901245 6.80447 0.169447ZM7.91515 10.2691C6.97586 10.2691 6.21187 9.50123 6.21187 8.55776C6.21187 7.61428 6.97586 6.8464 7.91515 6.8464C8.85444 6.8464 9.61843 7.61428 9.61843 8.55776C9.61843 9.50123 8.88744 10.2691 7.91515 10.2691Z" fill="white"/>
</svg>
