<svg width="17" height="17" viewBox="0 0 17 17" fill="none" xmlns="http://www.w3.org/2000/svg">
<path d="M16.975 12.8492L16.203 16.1959C16.0945 16.669 15.6787 17 15.1915 17C6.81393 16.9993 0 10.1864 0 1.80967C0 1.32294 0.331033 0.906595 0.804256 0.79869L4.15145 0.0267566C4.63892 -0.0861947 5.13701 0.1668 5.33957 0.628367L6.88432 4.23072C7.0649 4.65504 6.9431 5.14941 6.58613 5.44092L4.79831 6.87622C5.92665 9.17442 7.7955 11.043 10.0947 12.1718L11.5584 10.3856C11.8469 10.0277 12.3451 9.90386 12.7695 10.0876L16.3723 11.6318C16.8057 11.8598 17.0879 12.3644 16.975 12.8492Z" fill="white"/>
</svg>
