<svg width="19" height="19" viewBox="0 0 19 19" fill="none" xmlns="http://www.w3.org/2000/svg">
<path d="M9.5 0C4.25347 0 0 4.25328 0 9.5C0 14.7467 4.25347 19 9.5 19C14.7465 19 19 14.7467 19 9.5C19 4.25328 14.7465 0 9.5 0ZM14.3189 10.5275C14.7617 10.9599 15.2301 11.367 15.6276 11.8441C15.8037 12.0552 15.9697 12.2735 16.0961 12.519C16.2764 12.8691 16.1136 13.253 15.8002 13.2738L13.854 13.2734C13.3513 13.315 12.9513 13.1122 12.6141 12.7686C12.3448 12.4947 12.0951 12.2022 11.8358 11.919C11.7299 11.8027 11.6183 11.6933 11.4853 11.6072C11.22 11.4346 10.9895 11.4875 10.8375 11.7646C10.6826 12.0467 10.6472 12.3592 10.6324 12.6731C10.6112 13.1321 10.4728 13.252 10.0124 13.2736C9.02845 13.3196 8.09487 13.1704 7.22719 12.6743C6.46175 12.2368 5.8693 11.6193 5.35304 10.9201C4.34774 9.55715 3.57783 8.06125 2.88606 6.52239C2.73036 6.17583 2.84427 5.99039 3.2266 5.9832C3.86181 5.97096 4.49702 5.97251 5.13224 5.98262C5.39075 5.9867 5.5618 6.13462 5.66113 6.37856C6.00439 7.22311 6.42521 8.02665 6.95254 8.77188C7.09307 8.97033 7.23652 9.1682 7.44081 9.30835C7.66628 9.46307 7.83811 9.41195 7.94443 9.16023C8.01246 9.00027 8.04181 8.82922 8.05658 8.65778C8.10712 8.07058 8.11315 7.48357 8.02568 6.8987C7.97125 6.5327 7.76541 6.29634 7.40057 6.22714C7.21475 6.19196 7.24196 6.12315 7.33235 6.01702C7.48921 5.83353 7.63615 5.72002 7.92985 5.72002L10.1288 5.71963C10.4754 5.78766 10.5531 5.94316 10.6002 6.29226L10.6021 8.73592C10.598 8.87101 10.6699 9.27142 10.9125 9.35986C11.1069 9.424 11.2352 9.26811 11.3514 9.14507C11.8787 8.58547 12.2545 7.92499 12.5909 7.24138C12.7394 6.93991 12.8675 6.62794 12.9919 6.31539C13.0844 6.08428 13.2283 5.97057 13.4891 5.97446L15.6066 5.97698C15.669 5.97698 15.7324 5.97757 15.7942 5.98826C16.1511 6.04929 16.2488 6.20284 16.1384 6.55097C15.9647 7.09793 15.627 7.55354 15.297 8.01032C14.9432 8.49937 14.566 8.9713 14.2157 9.46249C13.8938 9.91149 13.9193 10.1375 14.3189 10.5275Z" fill="white"/>
</svg>
