<svg width="19" height="19" viewBox="0 0 19 19" fill="none" xmlns="http://www.w3.org/2000/svg">
<path d="M9.5 0C4.25202 0 0 4.25202 0 9.5C0 14.748 4.25202 19 9.5 19C14.748 19 19 14.7135 19 9.5C19 4.28649 14.7135 0 9.5 0ZM13.8708 6.4623C13.7278 7.96468 13.1092 11.6107 12.7944 13.2923C12.6612 14.0041 12.399 14.2431 12.1451 14.2661C11.5934 14.3169 11.1744 13.9015 10.64 13.5513C9.80377 13.0031 9.33145 12.6618 8.51974 12.1271C7.58161 11.5088 8.18984 11.1694 8.72437 10.614C8.86427 10.4687 11.2951 8.25772 11.3419 8.057C11.3477 8.03191 11.3533 7.93825 11.2976 7.88906C11.2419 7.83988 11.1601 7.85654 11.1009 7.86991C11.0171 7.88896 9.68148 8.77179 7.09409 10.5184C6.71485 10.7786 6.3715 10.9055 6.06403 10.899C5.72482 10.8916 5.07227 10.7072 4.58731 10.5495C3.99241 10.3561 3.51933 10.2539 3.5607 9.92547C3.58215 9.75437 3.81774 9.57943 4.26745 9.40067C7.03573 8.19402 8.8821 7.39852 9.80657 7.01418C12.4447 5.9167 12.9929 5.72632 13.3503 5.7198C13.4289 5.7185 13.6046 5.73796 13.7184 5.83032C13.7941 5.8961 13.8424 5.98792 13.8536 6.08758C13.8734 6.21146 13.8791 6.33715 13.8708 6.4623V6.4623Z" fill="white"/>
</svg>
