<svg width="263" height="76" viewBox="0 0 263 76" fill="none" xmlns="http://www.w3.org/2000/svg">
<path d="M30.66 58.02C32.66 57.9 34.62 57.52 36.54 56.88C38.46 56.28 40.32 55.52 42.12 54.6C43.92 53.68 45.66 52.66 47.34 51.54C49.06 50.46 50.68 49.34 52.2 48.18C50.72 49.46 49.18 50.66 47.58 51.78C45.98 52.94 44.3 53.98 42.54 54.9C40.82 55.82 39.04 56.6 37.2 57.24C35.36 57.88 33.46 58.34 31.5 58.62C28.94 58.94 26.44 58.84 24 58.32C21.6 57.84 19.5 56.7 17.7 54.9C16.58 55.3 15.28 55.68 13.8 56.04C12.36 56.4 10.88 56.58 9.36 56.58C7.88 56.62 6.46 56.4 5.1 55.92C3.74 55.48 2.62 54.64 1.74 53.4C1.06 52.52 0.6 51.56 0.36 50.52C0.12 49.48 0 48.44 0 47.4C0 45.48 0.3 43.58 0.9 41.7C1.5 39.78 2.28 37.94 3.24 36.18C4.28 34.3 5.52 32.56 6.96 30.96C8.4 29.36 9.96 27.9 11.64 26.58C13.32 25.26 15.1 24.1 16.98 23.1C18.86 22.06 20.8 21.14 22.8 20.34C22.48 20.14 22.16 19.88 21.84 19.56C21.56 19.24 21.36 18.86 21.24 18.42H20.88C19.92 18.5 18.78 18.46 17.46 18.3C16.14 18.14 14.9 17.82 13.74 17.34C12.62 16.82 11.68 16.12 10.92 15.24C10.2 14.32 9.9 13.14 10.02 11.7C10.18 10.26 10.68 8.98 11.52 7.86C12.36 6.7 13.38 5.7 14.58 4.86C15.78 3.98 17.1 3.26 18.54 2.7C19.98 2.14 21.36 1.72 22.68 1.44C23.96 1.16 24.96 1.04 25.68 1.08C26.4 1.12 26.88 1.22 27.12 1.38C27.44 1.58 27.56 1.82 27.48 2.1C27.44 2.34 27.28 2.58 27 2.82C26.72 3.02 26.4 3.2 26.04 3.36C25.68 3.48 25.38 3.54 25.14 3.54C25.34 3.54 25.54 3.38 25.74 3.06C25.98 2.74 26.08 2.48 26.04 2.28C25.96 1.84 25.54 1.6 24.78 1.56C24.06 1.52 23.22 1.62 22.26 1.86C21.34 2.06 20.4 2.32 19.44 2.64C18.52 2.96 17.8 3.26 17.28 3.54C16.36 3.98 15.5 4.54 14.7 5.22C13.9 5.86 13.22 6.6 12.66 7.44C12.06 8.36 11.62 9.28 11.34 10.2C11.1 11.08 11.06 11.94 11.22 12.78C11.38 13.58 11.74 14.32 12.3 15C12.9 15.68 13.78 16.26 14.94 16.74C15.9 17.14 16.88 17.42 17.88 17.58C18.92 17.74 19.96 17.82 21 17.82C20.8 17.02 20.78 16.22 20.94 15.42C21.14 14.58 21.4 13.8 21.72 13.08C22.12 12.28 22.58 11.56 23.1 10.92C23.66 10.28 24.28 9.68 24.96 9.12C26 8.24 27.22 7.34 28.62 6.42C30.06 5.5 31.56 4.7 33.12 4.02C34.72 3.3 36.34 2.76 37.98 2.4C39.62 2.04 41.16 1.96 42.6 2.16C43.76 2.32 44.56 2.82 45 3.66C45.44 4.46 45.46 5.44 45.06 6.6C44.74 7.56 44.22 8.44 43.5 9.24C42.78 10.04 42.02 10.76 41.22 11.4C38.66 13.44 35.88 15.06 32.88 16.26C29.92 17.42 26.52 18.1 22.68 18.3C22.72 18.38 22.8 18.52 22.92 18.72C23.08 18.88 23.24 19.04 23.4 19.2C23.56 19.36 23.72 19.5 23.88 19.62C24.08 19.74 24.24 19.78 24.36 19.74C25.04 19.46 25.72 19.22 26.4 19.02C27.12 18.82 27.84 18.6 28.56 18.36C29.72 18.04 30.9 17.78 32.1 17.58C33.34 17.34 34.56 17.2 35.76 17.16C35.88 17.16 36.08 17.16 36.36 17.16C36.64 17.16 36.92 17.18 37.2 17.22C37.48 17.26 37.72 17.34 37.92 17.46C38.16 17.54 38.28 17.7 38.28 17.94C38.28 18.54 37.92 19.06 37.2 19.5C36.52 19.94 35.72 20.32 34.8 20.64C33.88 20.92 32.96 21.14 32.04 21.3C31.12 21.46 30.44 21.56 30 21.6C28.96 21.68 27.88 21.68 26.76 21.6C25.64 21.52 24.6 21.26 23.64 20.82C23.56 20.78 23.5 20.76 23.46 20.76C23.42 20.72 23.36 20.72 23.28 20.76C22.36 21.08 21.46 21.5 20.58 22.02C19.74 22.5 18.88 23.02 18 23.58C16.2 24.66 14.5 25.9 12.9 27.3C11.3 28.66 9.84 30.16 8.52 31.8C7.2 33.4 6.04 35.14 5.04 37.02C4.04 38.86 3.28 40.82 2.76 42.9C2.52 43.82 2.32 44.8 2.16 45.84C2 46.88 1.96 47.9 2.04 48.9C2.12 49.94 2.34 50.9 2.7 51.78C3.1 52.7 3.74 53.48 4.62 54.12C5.5 54.8 6.46 55.26 7.5 55.5C8.54 55.74 9.62 55.84 10.74 55.8C11.86 55.8 12.98 55.66 14.1 55.38C15.26 55.14 16.36 54.86 17.4 54.54C16.28 53.34 15.46 51.96 14.94 50.4C14.46 48.88 14.22 47.3 14.22 45.66C14.22 43.62 14.52 41.62 15.12 39.66C15.72 37.7 16.56 35.86 17.64 34.14C18.72 32.42 20.02 30.88 21.54 29.52C23.06 28.12 24.76 27.02 26.64 26.22C27.52 25.82 28.5 25.48 29.58 25.2C30.66 24.92 31.72 24.78 32.76 24.78C33.84 24.74 34.86 24.9 35.82 25.26C36.78 25.62 37.6 26.24 38.28 27.12C38.88 27.88 39.24 28.72 39.36 29.64C39.52 30.52 39.52 31.44 39.36 32.4C39.24 33.32 39 34.26 38.64 35.22C38.32 36.14 37.98 37.02 37.62 37.86C36.7 39.78 35.58 41.54 34.26 43.14C32.94 44.74 31.5 46.22 29.94 47.58C28.3 48.98 26.56 50.24 24.72 51.36C22.92 52.52 21.04 53.52 19.08 54.36C20.6 55.88 22.38 56.9 24.42 57.42C26.5 57.98 28.58 58.18 30.66 58.02ZM29.82 6.54C29.1 7.02 28.26 7.68 27.3 8.52C26.34 9.36 25.46 10.3 24.66 11.34C23.9 12.34 23.28 13.4 22.8 14.52C22.36 15.64 22.26 16.74 22.5 17.82C25.46 17.82 28.36 17.2 31.2 15.96C34.08 14.72 36.76 13.14 39.24 11.22C40.04 10.58 40.82 9.92 41.58 9.24C42.38 8.52 43.06 7.72 43.62 6.84C44.18 5.92 44.4 5.02 44.28 4.14C44.16 3.26 43.42 2.72 42.06 2.52C41.02 2.36 39.96 2.38 38.88 2.58C37.84 2.74 36.78 3.02 35.7 3.42C34.66 3.82 33.64 4.3 32.64 4.86C31.64 5.38 30.7 5.94 29.82 6.54ZM36.36 17.4C34.48 17.4 32.6 17.66 30.72 18.18C28.88 18.7 26.94 19.32 24.9 20.04C25.58 20.44 26.34 20.72 27.18 20.88C28.06 21 28.94 21.06 29.82 21.06C30.74 21.02 31.64 20.92 32.52 20.76C33.4 20.56 34.22 20.34 34.98 20.1C35.22 20.02 35.6 19.86 36.12 19.62C36.68 19.34 37.12 19.06 37.44 18.78C37.8 18.46 37.94 18.18 37.86 17.94C37.78 17.66 37.28 17.48 36.36 17.4ZM18.78 54.06C20.9 53.3 22.96 52.2 24.96 50.76C27 49.36 28.86 47.72 30.54 45.84C32.26 43.92 33.72 41.86 34.92 39.66C36.16 37.42 37.02 35.12 37.5 32.76C37.7 31.88 37.74 31 37.62 30.12C37.54 29.2 37.22 28.38 36.66 27.66C35.98 26.86 35.12 26.3 34.08 25.98C33.08 25.66 32.08 25.52 31.08 25.56C29.04 25.64 27.1 26.22 25.26 27.3C23.42 28.38 21.84 29.68 20.52 31.2C19.2 32.76 18.16 34.48 17.4 36.36C16.64 38.2 16.12 40.14 15.84 42.18C15.56 44.22 15.62 46.3 16.02 48.42C16.42 50.58 17.34 52.46 18.78 54.06ZM42.2077 40.08C41.9677 40.76 41.7877 41.36 41.6677 41.88C41.5877 42.4 41.5077 42.84 41.4277 43.2C41.3477 43.64 41.3277 44.02 41.3677 44.34C41.3677 45.1 41.5677 45.8 41.9677 46.44C42.3677 47.04 43.0277 47.22 43.9477 46.98C44.6277 46.82 45.2677 46.5 45.8677 46.02C46.5077 45.54 47.0877 45 47.6077 44.4C48.1677 43.76 48.6877 43.1 49.1677 42.42C49.6477 41.74 50.0677 41.1 50.4277 40.5V41.04C50.3077 41.2 50.0077 41.64 49.5277 42.36C49.0877 43.08 48.5077 43.86 47.7877 44.7C47.0677 45.5 46.2277 46.24 45.2677 46.92C44.3477 47.56 43.3677 47.88 42.3277 47.88C41.4077 47.88 40.7277 47.5 40.2877 46.74C39.8477 45.94 39.7077 45.08 39.8677 44.16C39.9477 43.48 40.1277 42.6 40.4077 41.52C40.7277 40.44 41.3477 38.9 42.2677 36.9C42.9877 35.3 43.8677 33.42 44.9077 31.26C45.9477 29.06 47.0477 26.86 48.2077 24.66C49.4077 22.46 50.6277 20.36 51.8677 18.36C53.1477 16.36 54.3477 14.7 55.4677 13.38C56.4277 12.3 57.2477 11.48 57.9277 10.92C58.6077 10.36 59.1677 10.04 59.6077 9.96C60.0877 9.88 60.4277 10 60.6277 10.32C60.8277 10.6 60.9077 11.04 60.8677 11.64C60.7477 13.48 60.3677 15.3 59.7277 17.1C59.0877 18.9 58.2877 20.66 57.3277 22.38C56.3677 24.06 55.3077 25.66 54.1477 27.18C53.0277 28.7 51.9277 30.08 50.8477 31.32C49.8077 32.56 48.8477 33.62 47.9677 34.5C47.0877 35.38 46.4277 36.04 45.9877 36.48C45.3477 37.08 44.7277 37.68 44.1277 38.28C43.5277 38.88 42.8877 39.48 42.2077 40.08ZM52.6477 17.94C52.4077 18.3 52.0677 18.9 51.6277 19.74C51.1877 20.54 50.7077 21.48 50.1877 22.56C49.6677 23.64 49.1077 24.8 48.5077 26.04C47.9077 27.28 47.3277 28.52 46.7677 29.76C45.4477 32.68 44.0077 35.86 42.4477 39.3C44.4877 37.38 46.3877 35.48 48.1477 33.6C49.9477 31.68 51.5477 29.72 52.9477 27.72C54.3477 25.68 55.5477 23.58 56.5477 21.42C57.5477 19.22 58.3077 16.9 58.8277 14.46C59.0677 13.46 59.1477 12.66 59.0677 12.06C59.0277 11.42 58.7877 11.16 58.3477 11.28C57.9077 11.4 57.2277 11.98 56.3077 13.02C55.3877 14.02 54.1677 15.66 52.6477 17.94ZM59.2027 41.34C59.0827 41.46 58.8027 41.88 58.3627 42.6C57.9227 43.32 57.3427 44.08 56.6227 44.88C55.9027 45.68 55.0827 46.4 54.1627 47.04C53.2427 47.68 52.2627 48 51.2227 48H50.9227C50.5627 47.96 50.2027 47.82 49.8427 47.58C49.4827 47.3 49.1827 46.88 48.9427 46.32C48.7427 45.76 48.6627 45.06 48.7027 44.22C48.7827 43.34 49.1027 42.28 49.6627 41.04C50.1027 40.04 50.7827 39.08 51.7027 38.16C52.6227 37.24 53.6427 36.62 54.7627 36.3C55.6027 36.06 56.3827 36.06 57.1027 36.3C57.8627 36.54 58.2227 37.02 58.1827 37.74C58.1427 38.42 57.5427 39.3 56.3827 40.38C55.2227 41.46 53.1627 42.72 50.2027 44.16C50.1627 45.04 50.2827 45.68 50.5627 46.08C50.8827 46.44 51.2027 46.68 51.5227 46.8C51.9227 46.96 52.3627 47 52.8427 46.92C53.4427 46.8 54.0427 46.52 54.6427 46.08C55.2827 45.6 55.8827 45.06 56.4427 44.46C57.0027 43.86 57.5227 43.24 58.0027 42.6C58.4827 41.92 58.9027 41.28 59.2627 40.68L59.2027 41.34ZM54.8227 36.54C53.7827 36.98 52.9427 37.6 52.3027 38.4C51.7027 39.16 51.2427 39.94 50.9227 40.74C50.6427 41.54 50.4427 42.24 50.3227 42.84C50.2427 43.4 50.2027 43.68 50.2027 43.68C52.2427 42.8 53.7627 41.88 54.7627 40.92C55.7627 39.96 56.3827 39.12 56.6227 38.4C56.8627 37.64 56.8027 37.08 56.4427 36.72C56.0827 36.32 55.5427 36.26 54.8227 36.54ZM70.6303 41.16V41.7C70.2303 42.3 69.8303 42.88 69.4303 43.44C69.0303 44 68.5703 44.56 68.0503 45.12C67.6103 45.56 67.0903 46.02 66.4903 46.5C65.9303 46.98 65.3103 47.42 64.6303 47.82C64.1503 49.66 63.4903 51.48 62.6503 53.28C61.8103 55.12 60.9103 56.86 59.9503 58.5C58.9903 60.18 58.0103 61.74 57.0103 63.18C55.9703 64.66 55.0303 65.96 54.1903 67.08C53.3103 68.2 52.5703 69.1 51.9703 69.78C51.3303 70.5 50.9303 70.92 50.7703 71.04C49.7703 72 48.7103 72.84 47.5903 73.56C46.4703 74.32 45.4703 74.82 44.5903 75.06C43.6703 75.3 42.9303 75.18 42.3703 74.7C41.8103 74.26 41.5703 73.32 41.6503 71.88C41.7703 70.04 42.3103 68.08 43.2703 66C44.1903 63.92 45.3903 61.9 46.8703 59.94C48.3503 57.98 50.0503 56.16 51.9703 54.48C53.8503 52.84 55.8103 51.5 57.8503 50.46C58.4903 50.14 59.2903 49.74 60.2503 49.26C61.2103 48.78 62.1503 48.3 63.0703 47.82C63.0703 47.82 63.1103 47.66 63.1903 47.34C63.3103 47.02 63.4303 46.64 63.5503 46.2C63.7103 45.76 63.8703 45.28 64.0303 44.76C64.1903 44.24 64.3303 43.8 64.4503 43.44C64.0103 44.2 63.4503 44.92 62.7703 45.6C62.1303 46.28 61.4503 46.84 60.7303 47.28C60.0503 47.68 59.3903 47.94 58.7503 48.06C58.1503 48.18 57.6703 48.08 57.3103 47.76C56.9503 47.44 56.7903 46.86 56.8303 46.02C56.8703 45.18 57.1903 44.02 57.7903 42.54C58.0703 41.9 58.4303 41.26 58.8703 40.62C59.3503 39.94 59.8503 39.34 60.3703 38.82C60.9303 38.26 61.4903 37.78 62.0503 37.38C62.6503 36.94 63.2103 36.6 63.7303 36.36C64.2503 36.16 64.7903 36.1 65.3503 36.18C65.9503 36.26 66.4703 36.52 66.9103 36.96C67.3103 36.44 67.6503 36.18 67.9303 36.18C68.2103 36.18 68.4103 36.32 68.5303 36.6C68.6903 36.88 68.7703 37.24 68.7703 37.68C68.7703 38.12 68.7103 38.48 68.5903 38.76C68.5503 38.52 68.4903 38.32 68.4103 38.16C68.2503 37.84 68.0303 37.84 67.7503 38.16C66.9103 39.44 66.3103 40.9 65.9503 42.54C65.6303 44.18 65.2303 45.76 64.7503 47.28C65.6303 46.76 66.5103 46.1 67.3903 45.3C68.0703 44.62 68.6903 43.9 69.2503 43.14C69.8103 42.38 70.2703 41.72 70.6303 41.16ZM61.9903 51.18C62.0703 50.94 62.2103 50.48 62.4103 49.8C62.6503 49.12 62.8103 48.64 62.8903 48.36C61.7703 48.92 60.6503 49.48 59.5303 50.04C58.4103 50.64 57.2503 51.34 56.0503 52.14C55.4503 52.54 54.7303 53.14 53.8903 53.94C53.0103 54.74 52.0903 55.66 51.1303 56.7C50.1703 57.78 49.2303 58.96 48.3103 60.24C47.3503 61.52 46.5303 62.84 45.8503 64.2C45.1303 65.6 44.5903 67 44.2303 68.4C43.8303 69.84 43.7103 71.24 43.8703 72.6C43.9503 73.2 44.2903 73.5 44.8903 73.5C45.4503 73.54 46.1503 73.36 46.9903 72.96C47.8303 72.56 48.7103 71.98 49.6303 71.22C50.5503 70.46 51.3903 69.62 52.1503 68.7C52.2703 68.54 52.7103 68 53.4703 67.08C54.2303 66.16 55.1303 64.92 56.1703 63.36C57.1703 61.84 58.1903 60.04 59.2303 57.96C60.3103 55.92 61.2303 53.66 61.9903 51.18ZM58.6303 43.26C58.1903 44.54 58.1103 45.5 58.3903 46.14C58.7103 46.74 59.2103 47 59.8903 46.92C60.6103 46.8 61.4303 46.34 62.3503 45.54C63.2703 44.7 64.1303 43.5 64.9303 41.94C65.1703 41.26 65.3903 40.6 65.5903 39.96C65.8303 39.32 66.0303 38.78 66.1903 38.34C66.2303 37.34 65.9503 36.74 65.3503 36.54C64.7903 36.3 64.1103 36.42 63.3103 36.9C62.5103 37.34 61.6703 38.1 60.7903 39.18C59.9103 40.26 59.1903 41.62 58.6303 43.26ZM83.7947 41.04C83.5947 41.36 83.2147 41.9 82.6547 42.66C82.1347 43.42 81.5347 44.2 80.8547 45C80.1747 45.8 79.4547 46.52 78.6947 47.16C77.9747 47.76 77.3347 48.06 76.7747 48.06C76.2947 48.06 75.9747 47.8 75.8147 47.28C75.6947 46.76 75.7947 45.82 76.1147 44.46L76.6547 42.66C76.2947 43.5 75.7747 44.3 75.0947 45.06C74.4147 45.78 73.7147 46.4 72.9947 46.92C72.2747 47.4 71.5747 47.74 70.8947 47.94C70.2147 48.1 69.6747 48.04 69.2747 47.76C68.8747 47.48 68.6747 46.92 68.6747 46.08C68.6747 45.24 68.9947 44.04 69.6347 42.48C69.9147 41.84 70.2747 41.2 70.7147 40.56C71.1947 39.88 71.6947 39.26 72.2147 38.7C72.7747 38.14 73.3347 37.66 73.8947 37.26C74.4947 36.82 75.0747 36.5 75.6347 36.3C76.1947 36.1 76.7947 36.04 77.4347 36.12C78.1147 36.2 78.6147 36.54 78.9347 37.14C79.3347 36.5 79.6947 36.16 80.0147 36.12C80.3347 36.04 80.5747 36.12 80.7347 36.36C80.9347 36.6 81.0547 36.92 81.0947 37.32C81.1347 37.68 81.0947 37.98 80.9747 38.22C80.9747 38.02 80.9547 37.86 80.9147 37.74C80.8347 37.46 80.6347 37.46 80.3147 37.74C79.8747 38.1 79.4947 38.64 79.1747 39.36C78.8547 40.08 78.5747 40.8 78.3347 41.52C78.0947 42.24 77.8947 42.9 77.7347 43.5C77.6147 44.06 77.5347 44.4 77.4947 44.52C77.2547 45.4 77.2147 46.02 77.3747 46.38C77.5347 46.7 77.8147 46.8 78.2147 46.68C78.6547 46.56 79.1347 46.26 79.6547 45.78C80.1747 45.3 80.6947 44.76 81.2147 44.16C81.7347 43.52 82.2147 42.9 82.6547 42.3C83.0947 41.66 83.4347 41.12 83.6747 40.68L83.7947 41.04ZM77.3747 40.56C78.1347 38.96 78.3347 37.82 77.9747 37.14C77.6147 36.46 76.9947 36.22 76.1147 36.42C75.2347 36.62 74.2547 37.28 73.1747 38.4C72.0947 39.52 71.1947 41.1 70.4747 43.14C69.9947 44.54 69.9347 45.54 70.2947 46.14C70.6947 46.74 71.2747 46.94 72.0347 46.74C72.8347 46.54 73.7347 45.94 74.7347 44.94C75.7347 43.9 76.6147 42.44 77.3747 40.56ZM95.6081 41.34C95.3281 41.78 94.9481 42.36 94.4681 43.08C93.9881 43.76 93.4481 44.46 92.8481 45.18C92.2481 45.86 91.6281 46.48 90.9881 47.04C90.3481 47.56 89.7481 47.88 89.1881 48C88.5881 48.12 88.1881 48 87.9881 47.64C87.7881 47.24 87.7281 46.74 87.8081 46.14C87.9281 45.5 88.1481 44.7 88.4681 43.74C88.8281 42.74 89.1681 41.78 89.4881 40.86C89.8081 39.94 90.0281 39.12 90.1481 38.4C90.2681 37.68 90.1481 37.24 89.7881 37.08C89.5481 37.04 89.1481 37.18 88.5881 37.5C88.0681 37.78 87.5081 38.14 86.9081 38.58C86.3481 39.02 85.8281 39.46 85.3481 39.9C84.8681 40.34 84.5681 40.64 84.4481 40.8C84.2081 41.2 83.9281 41.78 83.6081 42.54C83.2881 43.26 82.9681 44.02 82.6481 44.82C82.3681 45.58 82.0881 46.28 81.8081 46.92C81.5681 47.52 81.3881 47.88 81.2681 48C81.1081 48.2 81.0881 48.06 81.2081 47.58C81.2881 47.06 81.4281 46.38 81.6281 45.54C81.8681 44.7 82.1481 43.78 82.4681 42.78C82.7881 41.78 83.1081 40.88 83.4281 40.08C83.5081 39.84 83.6081 39.58 83.7281 39.3C83.8881 38.98 84.0081 38.7 84.0881 38.46C84.2081 38.18 84.3081 37.88 84.3881 37.56C84.4681 37.36 84.4481 37.22 84.3281 37.14C84.2481 37.06 84.1481 37.04 84.0281 37.08C83.8681 37.12 83.6881 37.2 83.4881 37.32C84.4081 36.56 85.0281 36.2 85.3481 36.24C85.6681 36.28 85.8081 36.5 85.7681 36.9C85.7681 37.3 85.6481 37.8 85.4081 38.4C85.2081 38.96 85.0281 39.42 84.8681 39.78C85.0281 39.54 85.4081 39.18 86.0081 38.7C86.6081 38.22 87.2681 37.76 87.9881 37.32C88.7081 36.88 89.3881 36.54 90.0281 36.3C90.7081 36.06 91.1681 36.06 91.4081 36.3C91.6881 36.58 91.7881 37.02 91.7081 37.62C91.6681 38.22 91.5481 38.9 91.3481 39.66C91.1481 40.42 90.8881 41.24 90.5681 42.12C90.2881 42.96 90.0281 43.8 89.7881 44.64C89.5481 45.6 89.5081 46.22 89.6681 46.5C89.8281 46.78 90.0881 46.84 90.4481 46.68C90.8081 46.52 91.2481 46.18 91.7681 45.66C92.2881 45.14 92.7881 44.58 93.2681 43.98C93.7881 43.38 94.2681 42.78 94.7081 42.18C95.1481 41.54 95.4681 41.04 95.6681 40.68L95.6081 41.34ZM125.973 28.56C127.813 28.44 129.573 28.02 131.253 27.3C132.933 26.54 134.473 25.56 135.873 24.36C134.913 25.6 133.833 26.58 132.633 27.3C131.433 28.02 130.133 28.58 128.733 28.98C127.373 29.34 125.933 29.58 124.413 29.7C122.893 29.78 121.353 29.78 119.793 29.7C117.993 29.62 116.173 29.5 114.333 29.34C112.533 29.18 110.633 29.1 108.633 29.1C107.513 29.1 106.373 29.1 105.213 29.1C104.093 29.1 102.953 29.12 101.793 29.16C101.713 29.36 101.613 29.54 101.493 29.7C101.373 29.86 101.273 30.04 101.193 30.24C100.513 31.56 99.8728 32.9 99.2728 34.26C98.6728 35.58 98.0928 36.94 97.5328 38.34C97.4128 38.58 97.2328 39.06 96.9928 39.78C96.7528 40.46 96.4928 41.22 96.2128 42.06C95.9728 42.9 95.7728 43.72 95.6128 44.52C95.4528 45.28 95.4128 45.86 95.4928 46.26C95.6128 46.66 95.8728 46.82 96.2728 46.74C96.7128 46.62 97.3928 46.06 98.3128 45.06C98.9928 44.38 99.6128 43.64 100.173 42.84C100.773 42.04 101.273 41.32 101.673 40.68V41.22C101.353 41.74 100.893 42.4 100.293 43.2C99.7328 43.96 99.1128 44.7 98.4328 45.42C97.8328 46.1 97.2128 46.7 96.5728 47.22C95.9728 47.74 95.4528 48.02 95.0128 48.06C94.6128 48.14 94.3328 47.94 94.1728 47.46C94.0528 46.94 94.1528 45.98 94.4728 44.58C95.0328 41.94 95.8328 39.36 96.8728 36.84C97.9528 34.32 99.1128 31.78 100.353 29.22C100.233 29.22 100.113 29.24 99.9928 29.28C99.8728 29.28 99.7528 29.28 99.6328 29.28C96.7928 29.48 93.9928 29.84 91.2328 30.36C88.4728 30.88 85.5728 31.56 82.5328 32.4C82.8128 32.32 83.0728 32.24 83.3128 32.16C83.5528 32.04 83.7928 31.94 84.0328 31.86C89.5128 30.18 95.0728 29.04 100.713 28.44C101.393 27 102.153 25.48 102.993 23.88C103.833 22.24 104.733 20.62 105.693 19.02C106.693 17.42 107.753 15.9 108.873 14.46C109.993 12.98 111.173 11.66 112.413 10.5C112.933 9.98 113.373 9.72 113.733 9.72C114.133 9.68 114.433 9.78 114.633 10.02C114.873 10.22 115.013 10.5 115.053 10.86C115.093 11.22 115.053 11.52 114.933 11.76C114.933 11.6 114.913 11.46 114.873 11.34C114.793 11.1 114.593 11.06 114.273 11.22C113.113 11.94 111.953 12.98 110.793 14.34C109.633 15.7 108.533 17.2 107.493 18.84C106.453 20.44 105.473 22.08 104.553 23.76C103.673 25.44 102.893 26.96 102.213 28.32C102.653 28.32 103.113 28.32 103.593 28.32C104.073 28.28 104.773 28.24 105.693 28.2C107.373 28.16 109.033 28.18 110.673 28.26C112.353 28.34 114.033 28.44 115.713 28.56C117.433 28.64 119.133 28.7 120.813 28.74C122.533 28.78 124.253 28.72 125.973 28.56ZM154.304 3.42C153.224 5.06 152.164 6.72 151.124 8.4C150.124 10.04 149.124 11.7 148.124 13.38C147.004 15.3 145.884 17.22 144.764 19.14C143.684 21.06 142.604 22.98 141.524 24.9C139.724 28.1 138.044 31.1 136.484 33.9C134.924 36.7 133.444 39.52 132.044 42.36C131.604 43.24 131.164 44.1 130.724 44.94C130.284 45.78 129.904 46.66 129.584 47.58C129.544 47.66 129.504 47.74 129.464 47.82C129.464 47.9 129.444 47.98 129.404 48.06C129.844 46.06 130.444 44.18 131.204 42.42C132.004 40.66 132.804 38.92 133.604 37.2C134.524 35.16 135.484 33.16 136.484 31.2C137.524 29.24 138.584 27.28 139.664 25.32C141.824 21.52 144.024 17.82 146.264 14.22C148.504 10.62 151.004 7.22 153.764 4.02C153.844 3.94 153.924 3.84 154.004 3.72C154.124 3.6 154.224 3.5 154.304 3.42ZM215.917 7.74C218.157 7.34 220.297 6.76 222.337 6C224.377 5.2 226.397 3.96 228.397 2.28C227.317 3.36 226.137 4.28 224.857 5.04C223.137 6.04 221.317 6.82 219.397 7.38C217.477 7.94 215.517 8.36 213.517 8.64C211.877 8.84 210.257 8.92 208.657 8.88C207.097 8.84 205.517 8.7 203.917 8.46C202.317 8.22 200.717 7.92 199.117 7.56C197.517 7.2 195.897 6.82 194.257 6.42C194.177 6.42 193.957 6.64 193.597 7.08C193.237 7.48 192.857 7.98 192.457 8.58C192.057 9.14 191.677 9.7 191.317 10.26C190.957 10.78 190.717 11.12 190.597 11.28C189.437 13.12 188.337 15 187.297 16.92C186.257 18.84 185.257 20.78 184.297 22.74C185.097 22.5 185.897 22.24 186.697 21.96C187.497 21.64 188.297 21.32 189.097 21C189.177 20.96 189.217 20.88 189.217 20.76C189.257 20.64 189.277 20.54 189.277 20.46C189.357 20.14 189.417 19.84 189.457 19.56C189.537 19.28 189.657 18.98 189.817 18.66C190.257 17.58 190.897 16.58 191.737 15.66C192.617 14.7 193.577 13.94 194.617 13.38C194.897 13.22 195.217 13.08 195.577 12.96C195.977 12.8 196.357 12.7 196.717 12.66C197.117 12.62 197.497 12.66 197.857 12.78C198.217 12.86 198.517 13.06 198.757 13.38C199.077 13.78 199.197 14.22 199.117 14.7C199.037 15.18 198.877 15.6 198.637 15.96C197.637 17.36 196.337 18.44 194.737 19.2C193.137 19.96 191.537 20.66 189.937 21.3C189.857 21.34 189.757 21.38 189.637 21.42C189.517 21.46 189.457 21.52 189.457 21.6C189.457 22.32 189.557 23.02 189.757 23.7C189.997 24.38 190.397 25 190.957 25.56C191.637 26.24 192.397 26.72 193.237 27C194.117 27.28 195.017 27.46 195.937 27.54C195.137 27.58 194.337 27.5 193.537 27.3C192.737 27.1 191.997 26.74 191.317 26.22C190.637 25.66 190.117 24.98 189.757 24.18C189.397 23.34 189.217 22.48 189.217 21.6C188.417 21.92 187.597 22.2 186.757 22.44C185.957 22.68 185.137 22.9 184.297 23.1C184.097 23.18 183.997 23.24 183.997 23.28C183.837 23.64 183.657 24 183.457 24.36C183.297 24.72 183.157 25.02 183.037 25.26C182.277 26.78 181.417 28.5 180.457 30.42C179.537 32.3 178.497 34.26 177.337 36.3C176.217 38.34 174.997 40.38 173.677 42.42C172.357 44.46 170.957 46.36 169.477 48.12C168.037 49.92 166.497 51.5 164.857 52.86C163.217 54.22 161.517 55.24 159.757 55.92C159.037 56.2 158.257 56.42 157.417 56.58C156.617 56.74 155.797 56.8 154.957 56.76C154.157 56.76 153.377 56.6 152.617 56.28C151.897 56 151.237 55.56 150.637 54.96C149.877 54.2 149.337 53.34 149.017 52.38C148.697 51.42 148.517 50.42 148.477 49.38C148.437 48.34 148.537 47.32 148.777 46.32C149.017 45.28 149.317 44.3 149.677 43.38C150.477 41.38 151.537 39.54 152.857 37.86C154.217 36.18 155.757 34.7 157.477 33.42C158.437 32.7 159.597 31.98 160.957 31.26C162.357 30.54 163.817 29.9 165.337 29.34C166.857 28.74 168.377 28.28 169.897 27.96C171.457 27.6 172.857 27.46 174.097 27.54C174.897 27.62 175.357 27.8 175.477 28.08C175.637 28.36 175.577 28.68 175.297 29.04C175.057 29.36 174.677 29.68 174.157 30C173.677 30.28 173.197 30.48 172.717 30.6C172.757 30.6 172.857 30.52 173.017 30.36C173.217 30.2 173.377 30.02 173.497 29.82C173.617 29.58 173.657 29.36 173.617 29.16C173.617 28.92 173.457 28.74 173.137 28.62C172.697 28.46 172.257 28.38 171.817 28.38C171.377 28.38 170.937 28.42 170.497 28.5C170.217 28.54 169.757 28.64 169.117 28.8C168.477 28.92 167.737 29.1 166.897 29.34C166.057 29.58 165.137 29.88 164.137 30.24C163.177 30.6 162.217 31.02 161.257 31.5C159.337 32.42 157.577 33.64 155.977 35.16C154.377 36.68 153.077 38.38 152.077 40.26C151.597 41.14 151.177 42.1 150.817 43.14C150.497 44.18 150.277 45.26 150.157 46.38C150.037 47.46 150.037 48.54 150.157 49.62C150.277 50.74 150.577 51.78 151.057 52.74C151.457 53.54 151.997 54.14 152.677 54.54C153.357 54.98 154.077 55.28 154.837 55.44C155.637 55.6 156.457 55.62 157.297 55.5C158.177 55.42 159.037 55.26 159.877 55.02C161.837 54.38 163.597 53.36 165.157 51.96C166.757 50.56 168.197 48.96 169.477 47.16C170.757 45.36 171.937 43.46 173.017 41.46C174.097 39.42 175.117 37.44 176.077 35.52C177.117 33.52 178.137 31.54 179.137 29.58C180.177 27.62 181.217 25.64 182.257 23.64C180.457 24.04 178.637 24.38 176.797 24.66C174.957 24.9 173.117 25 171.277 24.96C169.637 24.96 167.997 24.76 166.357 24.36C164.717 23.96 163.357 23.32 162.277 22.44C161.197 21.56 160.517 20.44 160.237 19.08C159.997 17.68 160.437 16 161.557 14.04C162.317 12.8 163.257 11.7 164.377 10.74C165.497 9.78 166.717 8.94 168.037 8.22C169.357 7.5 170.737 6.92 172.177 6.48C173.657 6 175.117 5.6 176.557 5.28C179.237 4.72 181.977 4.38 184.777 4.26C187.577 4.1 190.357 4.32 193.117 4.92L194.737 5.28C195.377 4.64 196.057 4.02 196.777 3.42C197.497 2.82 198.297 2.18 199.177 1.5C199.537 1.22 199.917 1.02 200.317 0.899998C200.717 0.739998 201.037 0.699997 201.277 0.779996C201.557 0.859998 201.757 1.06 201.877 1.38C201.997 1.66 201.977 2.08 201.817 2.64C201.537 3.4 201.037 4.04 200.317 4.56C200.397 4.52 200.457 4.36 200.497 4.08C200.577 3.76 200.617 3.5 200.617 3.3C200.617 2.7 200.377 2.44 199.897 2.52C199.417 2.56 198.857 2.76 198.217 3.12C197.577 3.44 196.957 3.84 196.357 4.32C195.797 4.8 195.397 5.16 195.157 5.4C196.997 5.88 198.757 6.32 200.437 6.72C202.117 7.12 203.777 7.44 205.417 7.68C207.057 7.92 208.737 8.06 210.457 8.1C212.177 8.14 213.997 8.02 215.917 7.74ZM193.837 14.4C192.797 15.08 191.857 16 191.017 17.16C190.217 18.28 189.697 19.5 189.457 20.82C189.897 20.62 190.577 20.28 191.497 19.8C192.457 19.28 193.417 18.7 194.377 18.06C195.337 17.42 196.177 16.76 196.897 16.08C197.617 15.36 197.977 14.7 197.977 14.1C197.977 13.66 197.737 13.4 197.257 13.32C196.817 13.24 196.457 13.24 196.177 13.32C195.737 13.4 195.317 13.54 194.917 13.74C194.557 13.94 194.197 14.16 193.837 14.4ZM182.497 23.16C184.017 20.24 185.657 17.34 187.417 14.46C189.177 11.54 191.257 8.82 193.657 6.3C191.577 5.86 189.497 5.58 187.417 5.46C185.377 5.34 183.297 5.34 181.177 5.46C179.057 5.62 176.957 5.9 174.877 6.3C172.797 6.7 170.797 7.36 168.877 8.28C167.917 8.72 166.977 9.24 166.057 9.84C165.137 10.44 164.317 11.14 163.597 11.94C163.197 12.42 162.797 12.98 162.397 13.62C162.037 14.22 161.737 14.88 161.497 15.6C161.297 16.28 161.177 16.98 161.137 17.7C161.097 18.42 161.237 19.12 161.557 19.8C162.317 21.12 163.517 22.12 165.157 22.8C166.837 23.44 168.637 23.86 170.557 24.06C172.517 24.22 174.477 24.22 176.437 24.06C178.397 23.9 180.077 23.68 181.477 23.4C181.557 23.4 181.757 23.36 182.077 23.28C182.237 23.24 182.377 23.2 182.497 23.16ZM195.749 41.34C195.429 41.9 194.989 42.54 194.429 43.26C193.869 43.98 193.249 44.7 192.569 45.42C191.889 46.18 191.209 46.84 190.529 47.4C189.889 47.92 189.349 48.14 188.909 48.06C188.469 48.1 188.169 47.86 188.009 47.34C187.849 46.78 187.929 45.82 188.249 44.46L188.429 43.74C188.549 43.26 188.789 42.54 189.149 41.58C188.709 42.14 188.169 42.82 187.529 43.62C186.889 44.42 186.229 45.18 185.549 45.9C184.869 46.58 184.189 47.14 183.509 47.58C182.829 48.02 182.229 48.18 181.709 48.06C181.149 47.9 180.889 47.48 180.929 46.8C180.929 46.12 181.069 45.36 181.349 44.52C181.629 43.68 181.969 42.86 182.369 42.06C182.769 41.22 183.069 40.58 183.269 40.14C183.469 39.7 183.709 39.2 183.989 38.64C184.309 38.08 184.489 37.7 184.529 37.5C184.569 37.3 184.529 37.18 184.409 37.14C184.329 37.06 184.229 37.04 184.109 37.08C183.949 37.12 183.769 37.18 183.569 37.26C184.449 36.54 185.069 36.18 185.429 36.18C185.789 36.18 185.969 36.38 185.969 36.78C186.009 37.14 185.909 37.62 185.669 38.22C185.469 38.78 185.269 39.26 185.069 39.66C184.109 41.58 183.409 43.18 182.969 44.46C182.569 45.7 182.589 46.5 183.029 46.86C183.229 47.06 183.629 46.92 184.229 46.44C184.829 45.96 185.469 45.36 186.149 44.64C186.829 43.88 187.489 43.12 188.129 42.36C188.769 41.56 189.229 40.96 189.509 40.56C189.709 40.12 189.889 39.66 190.049 39.18C190.249 38.66 190.489 38.12 190.769 37.56C191.209 36.68 191.589 36.18 191.909 36.06C192.269 35.9 192.549 35.94 192.749 36.18C192.989 36.42 193.129 36.76 193.169 37.2C193.249 37.64 193.229 37.98 193.109 38.22C193.069 38.06 193.029 37.92 192.989 37.8C192.909 37.72 192.829 37.66 192.749 37.62C192.709 37.58 192.609 37.62 192.449 37.74C192.009 38.1 191.629 38.64 191.309 39.36C190.989 40.08 190.709 40.82 190.469 41.58C190.229 42.3 190.029 42.96 189.869 43.56C189.749 44.12 189.669 44.44 189.629 44.52C189.229 46.24 189.469 46.96 190.349 46.68C190.789 46.56 191.189 46.32 191.549 45.96C191.909 45.56 192.249 45.2 192.569 44.88C193.169 44.24 193.769 43.52 194.369 42.72C195.009 41.92 195.489 41.24 195.809 40.68L195.749 41.34ZM204.63 41.52C204.31 42 203.87 42.62 203.31 43.38C202.75 44.1 202.15 44.82 201.51 45.54C200.87 46.26 200.21 46.88 199.53 47.4C198.89 47.88 198.31 48.12 197.79 48.12C197.47 48.12 197.21 47.98 197.01 47.7C196.81 47.42 196.79 46.94 196.95 46.26C197.15 45.38 197.43 44.54 197.79 43.74C198.15 42.9 198.57 42.02 199.05 41.1C199.21 40.74 199.33 40.34 199.41 39.9C199.53 39.42 199.39 39.02 198.99 38.7C198.91 38.62 198.69 38.46 198.33 38.22C198.01 37.98 197.83 37.88 197.79 37.92C197.67 38.2 197.47 38.58 197.19 39.06C196.91 39.5 196.63 39.94 196.35 40.38C195.99 40.9 195.63 41.46 195.27 42.06C195.19 42.14 195.11 42.16 195.03 42.12C194.99 42.04 194.99 41.96 195.03 41.88C195.03 41.88 195.15 41.7 195.39 41.34C195.63 40.98 195.89 40.58 196.17 40.14C196.45 39.66 196.71 39.2 196.95 38.76C197.23 38.32 197.41 38 197.49 37.8C196.53 37.32 196.05 36.78 196.05 36.18C196.05 35.54 196.23 35.04 196.59 34.68C196.95 34.32 197.35 34.22 197.79 34.38C198.23 34.5 198.41 35.06 198.33 36.06C198.29 36.38 198.23 36.7 198.15 37.02C198.07 37.3 197.99 37.5 197.91 37.62C198.19 37.78 198.53 37.94 198.93 38.1C199.33 38.22 199.69 38.36 200.01 38.52C200.37 38.68 200.61 38.88 200.73 39.12C200.85 39.32 200.89 39.54 200.85 39.78C200.85 40.02 200.79 40.26 200.67 40.5C200.59 40.7 200.51 40.88 200.43 41.04C200.07 41.72 199.75 42.44 199.47 43.2C199.19 43.92 198.93 44.68 198.69 45.48C198.45 46.56 198.51 47.1 198.87 47.1C199.23 47.1 199.73 46.82 200.37 46.26C201.01 45.66 201.71 44.88 202.47 43.92C203.27 42.96 203.95 42.04 204.51 41.16L204.63 41.52ZM197.61 37.5C197.77 37.22 197.89 36.9 197.97 36.54C198.09 36.18 198.09 35.84 197.97 35.52C197.77 35.24 197.57 35.16 197.37 35.28C197.17 35.4 197.03 35.6 196.95 35.88C196.87 36.16 196.87 36.48 196.95 36.84C197.03 37.16 197.25 37.38 197.61 37.5ZM216.897 41.34C216.617 41.78 216.237 42.36 215.757 43.08C215.277 43.76 214.737 44.46 214.137 45.18C213.537 45.86 212.917 46.48 212.277 47.04C211.637 47.56 211.037 47.88 210.477 48C209.877 48.12 209.477 48 209.277 47.64C209.077 47.24 209.017 46.74 209.097 46.14C209.217 45.5 209.437 44.7 209.757 43.74C210.117 42.74 210.457 41.78 210.777 40.86C211.097 39.94 211.317 39.12 211.437 38.4C211.557 37.68 211.437 37.24 211.077 37.08C210.837 37.04 210.437 37.18 209.877 37.5C209.357 37.78 208.797 38.14 208.197 38.58C207.637 39.02 207.117 39.46 206.637 39.9C206.157 40.34 205.857 40.64 205.737 40.8C205.497 41.2 205.217 41.78 204.897 42.54C204.577 43.26 204.257 44.02 203.937 44.82C203.657 45.58 203.377 46.28 203.097 46.92C202.857 47.52 202.677 47.88 202.557 48C202.397 48.2 202.377 48.06 202.497 47.58C202.577 47.06 202.717 46.38 202.917 45.54C203.157 44.7 203.437 43.78 203.757 42.78C204.077 41.78 204.397 40.88 204.717 40.08C204.797 39.84 204.897 39.58 205.017 39.3C205.177 38.98 205.297 38.7 205.377 38.46C205.497 38.18 205.597 37.88 205.677 37.56C205.757 37.36 205.737 37.22 205.617 37.14C205.537 37.06 205.437 37.04 205.317 37.08C205.157 37.12 204.977 37.2 204.777 37.32C205.697 36.56 206.317 36.2 206.637 36.24C206.957 36.28 207.097 36.5 207.057 36.9C207.057 37.3 206.937 37.8 206.697 38.4C206.497 38.96 206.317 39.42 206.157 39.78C206.317 39.54 206.697 39.18 207.297 38.7C207.897 38.22 208.557 37.76 209.277 37.32C209.997 36.88 210.677 36.54 211.317 36.3C211.997 36.06 212.457 36.06 212.697 36.3C212.977 36.58 213.077 37.02 212.997 37.62C212.957 38.22 212.837 38.9 212.637 39.66C212.437 40.42 212.177 41.24 211.857 42.12C211.577 42.96 211.317 43.8 211.077 44.64C210.837 45.6 210.797 46.22 210.957 46.5C211.117 46.78 211.377 46.84 211.737 46.68C212.097 46.52 212.537 46.18 213.057 45.66C213.577 45.14 214.077 44.58 214.557 43.98C215.077 43.38 215.557 42.78 215.997 42.18C216.437 41.54 216.757 41.04 216.957 40.68L216.897 41.34ZM219.962 32.88C219.602 32.8 219.402 32.64 219.362 32.4C219.362 32.16 219.422 31.92 219.542 31.68C219.702 31.44 219.882 31.24 220.082 31.08C220.322 30.92 220.542 30.86 220.742 30.9C220.902 30.94 221.022 31.08 221.102 31.32C221.222 31.56 221.262 31.82 221.222 32.1C221.182 32.38 221.062 32.62 220.862 32.82C220.662 32.98 220.362 33 219.962 32.88ZM222.722 40.68V41.22C222.402 41.78 221.962 42.42 221.402 43.14C220.842 43.86 220.222 44.58 219.542 45.3C218.102 46.94 216.882 47.82 215.882 47.94C215.442 47.98 215.162 47.72 215.042 47.16C214.922 46.6 215.002 45.66 215.282 44.34C215.362 43.9 215.502 43.34 215.702 42.66C215.902 42.1 216.142 41.4 216.422 40.56C216.742 39.68 217.182 38.66 217.742 37.5C218.222 36.62 218.622 36.12 218.942 36C219.302 35.84 219.582 35.88 219.782 36.12C219.982 36.32 220.102 36.64 220.142 37.08C220.222 37.52 220.202 37.86 220.082 38.1C220.042 37.94 220.002 37.8 219.962 37.68C219.882 37.6 219.802 37.54 219.722 37.5C219.682 37.46 219.582 37.5 219.422 37.62C218.982 37.98 218.602 38.52 218.282 39.24C217.962 39.96 217.682 40.7 217.442 41.46C217.202 42.18 217.002 42.84 216.842 43.44C216.722 44 216.662 44.32 216.662 44.4C216.502 45.32 216.502 45.9 216.662 46.14C216.822 46.34 217.102 46.38 217.502 46.26C217.982 46.1 218.462 45.8 218.942 45.36C219.462 44.88 219.962 44.38 220.442 43.86C220.922 43.3 221.362 42.74 221.762 42.18C222.162 41.62 222.482 41.12 222.722 40.68ZM253.063 28.56C254.903 28.44 256.663 28.02 258.343 27.3C260.023 26.54 261.563 25.56 262.963 24.36C262.003 25.6 260.923 26.58 259.723 27.3C258.523 28.02 257.223 28.58 255.823 28.98C254.463 29.34 253.023 29.58 251.503 29.7C249.983 29.78 248.443 29.78 246.883 29.7C245.083 29.62 243.263 29.5 241.423 29.34C239.623 29.18 237.723 29.1 235.723 29.1C234.603 29.1 233.463 29.1 232.303 29.1C231.183 29.1 230.043 29.12 228.883 29.16C228.803 29.36 228.703 29.54 228.583 29.7C228.463 29.86 228.363 30.04 228.283 30.24C227.603 31.56 226.963 32.9 226.363 34.26C225.763 35.58 225.183 36.94 224.623 38.34C224.503 38.58 224.323 39.06 224.083 39.78C223.843 40.46 223.583 41.22 223.303 42.06C223.063 42.9 222.863 43.72 222.703 44.52C222.543 45.28 222.503 45.86 222.583 46.26C222.703 46.66 222.963 46.82 223.363 46.74C223.803 46.62 224.483 46.06 225.403 45.06C226.083 44.38 226.703 43.64 227.263 42.84C227.863 42.04 228.363 41.32 228.763 40.68V41.22C228.443 41.74 227.983 42.4 227.383 43.2C226.823 43.96 226.203 44.7 225.523 45.42C224.923 46.1 224.303 46.7 223.663 47.22C223.063 47.74 222.543 48.02 222.103 48.06C221.703 48.14 221.423 47.94 221.263 47.46C221.143 46.94 221.243 45.98 221.563 44.58C222.123 41.94 222.923 39.36 223.963 36.84C225.043 34.32 226.203 31.78 227.443 29.22C227.323 29.22 227.203 29.24 227.083 29.28C226.963 29.28 226.843 29.28 226.723 29.28C223.883 29.48 221.083 29.84 218.323 30.36C215.563 30.88 212.663 31.56 209.623 32.4C209.903 32.32 210.163 32.24 210.403 32.16C210.643 32.04 210.883 31.94 211.123 31.86C216.603 30.18 222.163 29.04 227.803 28.44C228.483 27 229.243 25.48 230.083 23.88C230.923 22.24 231.823 20.62 232.783 19.02C233.783 17.42 234.843 15.9 235.963 14.46C237.083 12.98 238.263 11.66 239.503 10.5C240.023 9.98 240.463 9.72 240.823 9.72C241.223 9.68 241.523 9.78 241.723 10.02C241.963 10.22 242.103 10.5 242.143 10.86C242.183 11.22 242.143 11.52 242.023 11.76C242.023 11.6 242.003 11.46 241.963 11.34C241.883 11.1 241.683 11.06 241.363 11.22C240.203 11.94 239.043 12.98 237.883 14.34C236.723 15.7 235.623 17.2 234.583 18.84C233.543 20.44 232.563 22.08 231.643 23.76C230.763 25.44 229.983 26.96 229.303 28.32C229.743 28.32 230.203 28.32 230.683 28.32C231.163 28.28 231.863 28.24 232.783 28.2C234.463 28.16 236.123 28.18 237.763 28.26C239.443 28.34 241.123 28.44 242.803 28.56C244.523 28.64 246.223 28.7 247.903 28.74C249.623 28.78 251.343 28.72 253.063 28.56ZM241.042 41.34C240.722 41.9 240.282 42.54 239.722 43.26C239.162 43.98 238.542 44.7 237.862 45.42C237.182 46.18 236.502 46.84 235.822 47.4C235.182 47.92 234.642 48.14 234.202 48.06C233.762 48.1 233.462 47.86 233.302 47.34C233.142 46.78 233.222 45.82 233.542 44.46L233.722 43.74C233.842 43.26 234.082 42.54 234.442 41.58C234.002 42.14 233.462 42.82 232.822 43.62C232.182 44.42 231.522 45.18 230.842 45.9C230.162 46.58 229.482 47.14 228.802 47.58C228.122 48.02 227.522 48.18 227.002 48.06C226.442 47.9 226.182 47.48 226.222 46.8C226.222 46.12 226.362 45.36 226.642 44.52C226.922 43.68 227.262 42.86 227.662 42.06C228.062 41.22 228.362 40.58 228.562 40.14C228.762 39.7 229.002 39.2 229.282 38.64C229.602 38.08 229.782 37.7 229.822 37.5C229.862 37.3 229.822 37.18 229.702 37.14C229.622 37.06 229.522 37.04 229.402 37.08C229.242 37.12 229.062 37.18 228.862 37.26C229.742 36.54 230.362 36.18 230.722 36.18C231.082 36.18 231.262 36.38 231.262 36.78C231.302 37.14 231.202 37.62 230.962 38.22C230.762 38.78 230.562 39.26 230.362 39.66C229.402 41.58 228.702 43.18 228.262 44.46C227.862 45.7 227.882 46.5 228.322 46.86C228.522 47.06 228.922 46.92 229.522 46.44C230.122 45.96 230.762 45.36 231.442 44.64C232.122 43.88 232.782 43.12 233.422 42.36C234.062 41.56 234.522 40.96 234.802 40.56C235.002 40.12 235.182 39.66 235.342 39.18C235.542 38.66 235.782 38.12 236.062 37.56C236.502 36.68 236.882 36.18 237.202 36.06C237.562 35.9 237.842 35.94 238.042 36.18C238.282 36.42 238.422 36.76 238.462 37.2C238.542 37.64 238.522 37.98 238.402 38.22C238.362 38.06 238.322 37.92 238.282 37.8C238.202 37.72 238.122 37.66 238.042 37.62C238.002 37.58 237.902 37.62 237.742 37.74C237.302 38.1 236.922 38.64 236.602 39.36C236.282 40.08 236.002 40.82 235.762 41.58C235.522 42.3 235.322 42.96 235.162 43.56C235.042 44.12 234.962 44.44 234.922 44.52C234.522 46.24 234.762 46.96 235.642 46.68C236.082 46.56 236.482 46.32 236.842 45.96C237.202 45.56 237.542 45.2 237.862 44.88C238.462 44.24 239.062 43.52 239.662 42.72C240.302 41.92 240.782 41.24 241.102 40.68L241.042 41.34ZM249.923 41.52C249.603 42 249.163 42.62 248.603 43.38C248.043 44.1 247.443 44.82 246.803 45.54C246.163 46.26 245.503 46.88 244.823 47.4C244.183 47.88 243.603 48.12 243.083 48.12C242.763 48.12 242.503 47.98 242.303 47.7C242.103 47.42 242.083 46.94 242.243 46.26C242.443 45.38 242.723 44.54 243.083 43.74C243.443 42.9 243.863 42.02 244.343 41.1C244.503 40.74 244.623 40.34 244.703 39.9C244.823 39.42 244.683 39.02 244.283 38.7C244.203 38.62 243.983 38.46 243.623 38.22C243.303 37.98 243.123 37.88 243.083 37.92C242.963 38.2 242.763 38.58 242.483 39.06C242.203 39.5 241.923 39.94 241.643 40.38C241.283 40.9 240.923 41.46 240.563 42.06C240.483 42.14 240.403 42.16 240.323 42.12C240.283 42.04 240.283 41.96 240.323 41.88C240.323 41.88 240.443 41.7 240.683 41.34C240.923 40.98 241.183 40.58 241.463 40.14C241.743 39.66 242.003 39.2 242.243 38.76C242.523 38.32 242.703 38 242.783 37.8C241.823 37.32 241.343 36.78 241.343 36.18C241.343 35.54 241.523 35.04 241.883 34.68C242.243 34.32 242.643 34.22 243.083 34.38C243.523 34.5 243.703 35.06 243.623 36.06C243.583 36.38 243.523 36.7 243.443 37.02C243.363 37.3 243.283 37.5 243.203 37.62C243.483 37.78 243.823 37.94 244.223 38.1C244.623 38.22 244.983 38.36 245.303 38.52C245.663 38.68 245.903 38.88 246.023 39.12C246.143 39.32 246.183 39.54 246.143 39.78C246.143 40.02 246.083 40.26 245.963 40.5C245.883 40.7 245.803 40.88 245.723 41.04C245.363 41.72 245.043 42.44 244.763 43.2C244.483 43.92 244.223 44.68 243.983 45.48C243.743 46.56 243.803 47.1 244.163 47.1C244.523 47.1 245.023 46.82 245.663 46.26C246.303 45.66 247.003 44.88 247.763 43.92C248.563 42.96 249.243 42.04 249.803 41.16L249.923 41.52ZM242.903 37.5C243.063 37.22 243.183 36.9 243.263 36.54C243.383 36.18 243.383 35.84 243.263 35.52C243.063 35.24 242.863 35.16 242.663 35.28C242.463 35.4 242.323 35.6 242.243 35.88C242.163 36.16 242.163 36.48 242.243 36.84C242.323 37.16 242.543 37.38 242.903 37.5ZM258.89 41.34C258.77 41.46 258.49 41.88 258.05 42.6C257.61 43.32 257.03 44.08 256.31 44.88C255.59 45.68 254.77 46.4 253.85 47.04C252.93 47.68 251.95 48 250.91 48H250.61C250.25 47.96 249.89 47.82 249.53 47.58C249.17 47.3 248.87 46.88 248.63 46.32C248.43 45.76 248.35 45.06 248.39 44.22C248.47 43.34 248.79 42.28 249.35 41.04C249.79 40.04 250.47 39.08 251.39 38.16C252.31 37.24 253.33 36.62 254.45 36.3C255.29 36.06 256.07 36.06 256.79 36.3C257.55 36.54 257.91 37.02 257.87 37.74C257.83 38.42 257.23 39.3 256.07 40.38C254.91 41.46 252.85 42.72 249.89 44.16C249.85 45.04 249.97 45.68 250.25 46.08C250.57 46.44 250.89 46.68 251.21 46.8C251.61 46.96 252.05 47 252.53 46.92C253.13 46.8 253.73 46.52 254.33 46.08C254.97 45.6 255.57 45.06 256.13 44.46C256.69 43.86 257.21 43.24 257.69 42.6C258.17 41.92 258.59 41.28 258.95 40.68L258.89 41.34ZM254.51 36.54C253.47 36.98 252.63 37.6 251.99 38.4C251.39 39.16 250.93 39.94 250.61 40.74C250.33 41.54 250.13 42.24 250.01 42.84C249.93 43.4 249.89 43.68 249.89 43.68C251.93 42.8 253.45 41.88 254.45 40.92C255.45 39.96 256.07 39.12 256.31 38.4C256.55 37.64 256.49 37.08 256.13 36.72C255.77 36.32 255.23 36.26 254.51 36.54Z" fill="#440000"/>
</svg>
