<svg width="199" height="56" viewBox="0 0 199 56" fill="none" xmlns="http://www.w3.org/2000/svg">
<path d="M23.199 42.96C24.7123 42.87 26.1954 42.585 27.6481 42.105C29.1009 41.655 30.5083 41.085 31.8703 40.395C33.2322 39.705 34.5488 38.94 35.82 38.1C37.1214 37.29 38.3472 36.45 39.4973 35.58C38.3775 36.54 37.2122 37.44 36.0016 38.28C34.791 39.15 33.5198 39.93 32.1881 40.62C30.8866 41.31 29.5398 41.895 28.1475 42.375C26.7553 42.855 25.3176 43.2 23.8346 43.41C21.8976 43.65 20.0059 43.575 18.1597 43.185C16.3437 42.825 14.7548 41.97 13.3928 40.62C12.5453 40.92 11.5617 41.205 10.4418 41.475C9.35224 41.745 8.2324 41.88 7.08228 41.88C5.96243 41.91 4.88798 41.745 3.85894 41.385C2.82989 41.055 1.98243 40.425 1.31658 39.495C0.802053 38.835 0.453992 38.115 0.272395 37.335C0.0907985 36.555 0 35.775 0 34.995C0 33.555 0.226996 32.13 0.680989 30.72C1.13498 29.28 1.72517 27.9 2.45156 26.58C3.23848 25.17 4.17673 23.865 5.26631 22.665C6.35589 21.465 7.53627 20.37 8.80745 19.38C10.0786 18.39 11.4255 17.52 12.848 16.77C14.2705 15.99 15.7384 15.3 17.2517 14.7C17.0096 14.55 16.7675 14.355 16.5253 14.115C16.3135 13.875 16.1621 13.59 16.0713 13.26H15.7989C15.0725 13.32 14.21 13.29 13.2112 13.17C12.2124 13.05 11.2741 12.81 10.3964 12.45C9.54897 12.06 8.83772 11.535 8.26266 10.875C7.71787 10.185 7.49088 9.3 7.58167 8.22C7.70274 7.14 8.08107 6.18 8.71665 5.34C9.35224 4.47 10.124 3.72 11.032 3.09C11.94 2.43 12.9388 1.89 14.0284 1.47C15.1179 1.05 16.1621 0.735002 17.1609 0.525002C18.1294 0.315002 18.8861 0.225002 19.4309 0.255002C19.9757 0.285002 20.3389 0.360002 20.5205 0.480002C20.7626 0.630002 20.8534 0.810002 20.7929 1.02C20.7626 1.2 20.6415 1.38 20.4297 1.56C20.2178 1.71 19.9757 1.845 19.7033 1.965C19.4309 2.055 19.2039 2.1 19.0223 2.1C19.1736 2.1 19.3249 1.98 19.4763 1.74C19.6579 1.5 19.7335 1.305 19.7033 1.155C19.6427 0.825002 19.3249 0.645002 18.7499 0.615002C18.2051 0.585002 17.5695 0.660002 16.8431 0.840002C16.147 0.990002 15.4357 1.185 14.7094 1.425C14.0132 1.665 13.4684 1.89 13.075 2.1C12.3789 2.43 11.7281 2.85 11.1228 3.36C10.5175 3.84 10.003 4.395 9.57924 5.025C9.12525 5.715 8.79232 6.405 8.58046 7.095C8.39886 7.755 8.36859 8.4 8.48966 9.03C8.61072 9.63 8.88312 10.185 9.30684 10.695C9.76084 11.205 10.4267 11.64 11.3044 12C12.0308 12.3 12.7723 12.51 13.529 12.63C14.3159 12.75 15.1028 12.81 15.8897 12.81C15.7384 12.21 15.7233 11.61 15.8443 11.01C15.9957 10.38 16.1924 9.795 16.4345 9.255C16.7372 8.655 17.0852 8.115 17.4787 7.635C17.9024 7.155 18.3716 6.705 18.8861 6.285C19.673 5.625 20.5961 4.95 21.6554 4.26C22.745 3.57 23.88 2.97 25.0604 2.46C26.271 1.92 27.4968 1.515 28.7377 1.245C29.9786 0.975002 31.1439 0.915002 32.2335 1.065C33.1112 1.185 33.7165 1.56 34.0494 2.19C34.3824 2.79 34.3975 3.525 34.0948 4.395C33.8527 5.115 33.4592 5.775 32.9145 6.375C32.3697 6.975 31.7946 7.515 31.1893 7.995C29.2522 9.525 27.1487 10.74 24.8788 11.64C22.6391 12.51 20.0665 13.02 17.1609 13.17C17.1912 13.23 17.2517 13.335 17.3425 13.485C17.4636 13.605 17.5846 13.725 17.7057 13.845C17.8268 13.965 17.9478 14.07 18.0689 14.16C18.2202 14.25 18.3413 14.28 18.4321 14.25C18.9466 14.04 19.4611 13.86 19.9757 13.71C20.5205 13.56 21.0652 13.395 21.61 13.215C22.4878 12.975 23.3806 12.78 24.2886 12.63C25.2268 12.45 26.15 12.345 27.0579 12.315C27.1487 12.315 27.3001 12.315 27.5119 12.315C27.7238 12.315 27.9357 12.33 28.1475 12.36C28.3594 12.39 28.541 12.45 28.6923 12.54C28.8739 12.6 28.9647 12.72 28.9647 12.9C28.9647 13.35 28.6923 13.74 28.1475 14.07C27.633 14.4 27.0277 14.685 26.3316 14.925C25.6354 15.135 24.9393 15.3 24.2432 15.42C23.5471 15.54 23.0325 15.615 22.6996 15.645C21.9127 15.705 21.0955 15.705 20.2481 15.645C19.4006 15.585 18.6137 15.39 17.8873 15.06C17.8268 15.03 17.7814 15.015 17.7511 15.015C17.7208 14.985 17.6754 14.985 17.6149 15.015C16.9188 15.255 16.2378 15.57 15.5719 15.96C14.9364 16.32 14.2856 16.71 13.6198 17.13C12.2578 17.94 10.9715 18.87 9.76084 19.92C8.55019 20.94 7.44548 22.065 6.44669 23.295C5.44791 24.495 4.57019 25.8 3.81354 27.21C3.05688 28.59 2.48183 30.06 2.08837 31.62C1.90677 32.31 1.75544 33.045 1.63437 33.825C1.51331 34.605 1.48304 35.37 1.54357 36.12C1.60411 36.9 1.77057 37.62 2.04297 38.28C2.34563 38.97 2.82989 39.555 3.49574 40.035C4.1616 40.545 4.88799 40.89 5.67491 41.07C6.46183 41.25 7.27901 41.325 8.12646 41.295C8.97392 41.295 9.82137 41.19 10.6688 40.98C11.5465 40.8 12.3789 40.59 13.1658 40.35C12.3183 39.45 11.6979 38.415 11.3044 37.245C10.9412 36.105 10.7596 34.92 10.7596 33.69C10.7596 32.16 10.9866 30.66 11.4406 29.19C11.8946 27.72 12.5302 26.34 13.3474 25.05C14.1646 23.76 15.1482 22.605 16.2983 21.585C17.4484 20.535 18.7348 19.71 20.1573 19.11C20.8231 18.81 21.5646 18.555 22.3818 18.345C23.199 18.135 24.0011 18.03 24.788 18.03C25.6052 18 26.377 18.12 27.1033 18.39C27.8297 18.66 28.4502 19.125 28.9647 19.785C29.4187 20.355 29.6911 20.985 29.7819 21.675C29.903 22.335 29.903 23.025 29.7819 23.745C29.6911 24.435 29.5095 25.14 29.2371 25.86C28.995 26.55 28.7377 27.21 28.4653 27.84C27.7692 29.28 26.9217 30.6 25.923 31.8C24.9242 33 23.8346 34.11 22.6542 35.13C21.4133 36.18 20.0967 37.125 18.7045 37.965C17.3425 38.835 15.92 39.585 14.437 40.215C15.5871 41.355 16.9339 42.12 18.4775 42.51C20.0513 42.93 21.6252 43.08 23.199 42.96ZM22.5634 4.35C22.0186 4.71 21.383 5.205 20.6567 5.835C19.9303 6.465 19.2644 7.17 18.6591 7.95C18.084 8.7 17.6149 9.495 17.2517 10.335C16.9188 11.175 16.8431 12 17.0247 12.81C19.2644 12.81 21.4587 12.345 23.6076 11.415C25.7868 10.485 27.8146 9.3 29.6911 7.86C30.2964 7.38 30.8866 6.885 31.4617 6.375C32.067 5.835 32.5815 5.235 33.0052 4.575C33.429 3.885 33.5954 3.21 33.5046 2.55C33.4138 1.89 32.8539 1.485 31.8249 1.335C31.0379 1.215 30.2359 1.23 29.4187 1.38C28.6318 1.5 27.8297 1.71 27.0125 2.01C26.2256 2.31 25.4538 2.67 24.6972 3.09C23.9405 3.48 23.2293 3.9 22.5634 4.35ZM27.5119 12.495C26.0894 12.495 24.6669 12.69 23.2444 13.08C21.8522 13.47 20.3843 13.935 18.8407 14.475C19.3552 14.775 19.9303 14.985 20.5659 15.105C21.2317 15.195 21.8976 15.24 22.5634 15.24C23.2595 15.21 23.9405 15.135 24.6064 15.015C25.2722 14.865 25.8927 14.7 26.4678 14.52C26.6494 14.46 26.9369 14.34 27.3303 14.16C27.7541 13.95 28.087 13.74 28.3291 13.53C28.6015 13.29 28.7075 13.08 28.6469 12.9C28.5864 12.69 28.2081 12.555 27.5119 12.495ZM14.21 39.99C15.8141 39.42 17.3728 38.595 18.8861 37.515C20.4297 36.465 21.837 35.235 23.1082 33.825C24.4097 32.385 25.5144 30.84 26.4224 29.19C27.3606 27.51 28.0113 25.785 28.3745 24.015C28.5259 23.355 28.5561 22.695 28.4653 22.035C28.4048 21.345 28.1627 20.73 27.7389 20.19C27.2244 19.59 26.5737 19.17 25.7868 18.93C25.0301 18.69 24.2735 18.585 23.5168 18.615C21.9732 18.675 20.5053 19.11 19.1131 19.92C17.7208 20.73 16.5253 21.705 15.5265 22.845C14.5278 24.015 13.7408 25.305 13.1658 26.715C12.5907 28.095 12.1973 29.55 11.9854 31.08C11.7735 32.61 11.8189 34.17 12.1216 35.76C12.4243 37.38 13.1204 38.79 14.21 39.99ZM31.9366 29.505C31.755 30.015 31.6188 30.465 31.528 30.855C31.4675 31.245 31.407 31.575 31.3464 31.845C31.2859 32.175 31.2708 32.46 31.301 32.7C31.301 33.27 31.4524 33.795 31.755 34.275C32.0577 34.725 32.5571 34.86 33.2532 34.68C33.7677 34.56 34.252 34.32 34.706 33.96C35.1902 33.6 35.6291 33.195 36.0226 32.745C36.4463 32.265 36.8397 31.77 37.2029 31.26C37.5661 30.75 37.8839 30.27 38.1563 29.82V30.225C38.0655 30.345 37.8385 30.675 37.4753 31.215C37.1424 31.755 36.7035 32.34 36.1588 32.97C35.614 33.57 34.9784 34.125 34.252 34.635C33.5559 35.115 32.8143 35.355 32.0274 35.355C31.3313 35.355 30.8168 35.07 30.4839 34.5C30.1509 33.9 30.045 33.255 30.1661 32.565C30.2266 32.055 30.3628 31.395 30.5746 30.585C30.8168 29.775 31.2859 28.62 31.982 27.12C32.5268 25.92 33.1927 24.51 33.9796 22.89C34.7665 21.24 35.5988 19.59 36.4765 17.94C37.3845 16.29 38.3077 14.715 39.2459 13.215C40.2144 11.715 41.1224 10.47 41.9699 9.48C42.6962 8.67 43.3167 8.055 43.8312 7.635C44.3458 7.215 44.7695 6.975 45.1024 6.915C45.4656 6.855 45.7229 6.945 45.8742 7.185C46.0255 7.395 46.0861 7.725 46.0558 8.175C45.965 9.555 45.6775 10.92 45.1932 12.27C44.7089 13.62 44.1036 14.94 43.3772 16.23C42.6508 17.49 41.8488 18.69 40.9711 19.83C40.1236 20.97 39.2913 22.005 38.4741 22.935C37.6872 23.865 36.9608 24.66 36.295 25.32C35.6291 25.98 35.1297 26.475 34.7968 26.805C34.3125 27.255 33.8434 27.705 33.3894 28.155C32.9354 28.605 32.4511 29.055 31.9366 29.505ZM39.8361 12.9C39.6545 13.17 39.3972 13.62 39.0643 14.25C38.7314 14.85 38.3682 15.555 37.9747 16.365C37.5813 17.175 37.1575 18.045 36.7035 18.975C36.2496 19.905 35.8107 20.835 35.387 21.765C34.3882 23.955 33.2986 26.34 32.1182 28.92C33.6618 27.48 35.0994 26.055 36.4312 24.645C37.7931 23.205 39.0038 21.735 40.0631 20.235C41.1224 18.705 42.0304 17.13 42.787 15.51C43.5437 13.86 44.1188 12.12 44.5122 10.29C44.6938 9.54 44.7543 8.94 44.6938 8.49C44.6635 8.01 44.4819 7.815 44.149 7.905C43.8161 7.995 43.3016 8.43 42.6054 9.21C41.9093 9.96 40.9862 11.19 39.8361 12.9ZM44.796 30.45C44.7052 30.54 44.4933 30.855 44.1604 31.395C43.8274 31.935 43.3886 32.505 42.8438 33.105C42.299 33.705 41.6785 34.245 40.9824 34.725C40.2863 35.205 39.5448 35.445 38.7579 35.445H38.5309C38.2585 35.415 37.9861 35.31 37.7137 35.13C37.4413 34.92 37.2143 34.605 37.0327 34.185C36.8814 33.765 36.8208 33.24 36.8511 32.61C36.9116 31.95 37.1538 31.155 37.5775 30.225C37.9104 29.475 38.4249 28.755 39.1211 28.065C39.8172 27.375 40.589 26.91 41.4364 26.67C42.072 26.49 42.6622 26.49 43.207 26.67C43.782 26.85 44.0544 27.21 44.0242 27.75C43.9939 28.26 43.5399 28.92 42.6622 29.73C41.7845 30.54 40.2258 31.485 37.9861 32.565C37.9558 33.225 38.0466 33.705 38.2585 34.005C38.5006 34.275 38.7427 34.455 38.9849 34.545C39.2875 34.665 39.6204 34.695 39.9836 34.635C40.4376 34.545 40.8916 34.335 41.3456 34.005C41.8299 33.645 42.2839 33.24 42.7076 32.79C43.1313 32.34 43.5248 31.875 43.888 31.395C44.2512 30.885 44.569 30.405 44.8414 29.955L44.796 30.45ZM41.4818 26.85C40.6949 27.18 40.0593 27.645 39.575 28.245C39.1211 28.815 38.773 29.4 38.5309 30C38.319 30.6 38.1677 31.125 38.0769 31.575C38.0163 31.995 37.9861 32.205 37.9861 32.205C39.5297 31.545 40.6798 30.855 41.4364 30.135C42.1931 29.415 42.6622 28.785 42.8438 28.245C43.0254 27.675 42.98 27.255 42.7076 26.985C42.4352 26.685 42.0266 26.64 41.4818 26.85ZM53.4427 30.315V30.72C53.14 31.17 52.8374 31.605 52.5347 32.025C52.2321 32.445 51.884 32.865 51.4905 33.285C51.1576 33.615 50.7641 33.96 50.3102 34.32C49.8864 34.68 49.4173 35.01 48.9028 35.31C48.5396 36.69 48.0402 38.055 47.4046 39.405C46.769 40.785 46.088 42.09 45.3616 43.32C44.6352 44.58 43.8937 45.75 43.1371 46.83C42.3502 47.94 41.6389 48.915 41.0033 49.755C40.3375 50.595 39.7775 51.27 39.3235 51.78C38.8393 52.32 38.5366 52.635 38.4156 52.725C37.6589 53.445 36.8568 54.075 36.0094 54.615C35.1619 55.185 34.4053 55.56 33.7394 55.74C33.0433 55.92 32.4834 55.83 32.0597 55.47C31.6359 55.14 31.4543 54.435 31.5149 53.355C31.6057 51.975 32.0143 50.505 32.7406 48.945C33.4368 47.385 34.3448 45.87 35.4646 44.4C36.5844 42.93 37.8708 41.565 39.3235 40.305C40.746 39.075 42.2291 38.07 43.7727 37.29C44.2569 37.05 44.8622 36.75 45.5886 36.39C46.315 36.03 47.0263 35.67 47.7224 35.31C47.7224 35.31 47.7527 35.19 47.8132 34.95C47.904 34.71 47.9948 34.425 48.0856 34.095C48.2067 33.765 48.3277 33.405 48.4488 33.015C48.5698 32.625 48.6758 32.295 48.7666 32.025C48.4337 32.595 48.0099 33.135 47.4954 33.645C47.0111 34.155 46.4966 34.575 45.9518 34.905C45.4373 35.205 44.9379 35.4 44.4537 35.49C43.9997 35.58 43.6365 35.505 43.3641 35.265C43.0917 35.025 42.9706 34.59 43.0009 33.96C43.0311 33.33 43.2733 32.46 43.7273 31.35C43.9391 30.87 44.2115 30.39 44.5444 29.91C44.9076 29.4 45.286 28.95 45.6794 28.56C46.1032 28.14 46.5269 27.78 46.9506 27.48C47.4046 27.15 47.8283 26.895 48.2218 26.715C48.6152 26.565 49.0238 26.52 49.4476 26.58C49.9016 26.64 50.295 26.835 50.6279 27.165C50.9306 26.775 51.1879 26.58 51.3997 26.58C51.6116 26.58 51.7629 26.685 51.8537 26.895C51.9748 27.105 52.0353 27.375 52.0353 27.705C52.0353 28.035 51.9899 28.305 51.8991 28.515C51.8689 28.335 51.8235 28.185 51.7629 28.065C51.6419 27.825 51.4754 27.825 51.2635 28.065C50.6279 29.025 50.174 30.12 49.9016 31.35C49.6594 32.58 49.3568 33.765 48.9936 34.905C49.6594 34.515 50.3253 34.02 50.9911 33.42C51.5057 32.91 51.9748 32.37 52.3985 31.8C52.8222 31.23 53.1703 30.735 53.4427 30.315ZM46.9052 37.83C46.9657 37.65 47.0717 37.305 47.223 36.795C47.4046 36.285 47.5257 35.925 47.5862 35.715C46.7387 36.135 45.8913 36.555 45.0438 36.975C44.1964 37.425 43.3187 37.95 42.4107 38.55C41.9567 38.85 41.4119 39.3 40.7763 39.9C40.1105 40.5 39.4143 41.19 38.6879 41.97C37.9616 42.78 37.2503 43.665 36.5542 44.625C35.8278 45.585 35.2073 46.575 34.6928 47.595C34.148 48.645 33.7394 49.695 33.467 50.745C33.1644 51.825 33.0736 52.875 33.1946 53.895C33.2552 54.345 33.5124 54.57 33.9664 54.57C34.3902 54.6 34.9198 54.465 35.5554 54.165C36.191 53.865 36.8568 53.43 37.553 52.86C38.2491 52.29 38.8847 51.66 39.4597 50.97C39.5505 50.85 39.8835 50.445 40.4585 49.755C41.0336 49.065 41.7146 48.135 42.5015 46.965C43.2581 45.825 44.0299 44.475 44.8168 42.915C45.634 41.385 46.3302 39.69 46.9052 37.83ZM44.3629 31.89C44.0299 32.85 43.9694 33.57 44.1813 34.05C44.4234 34.5 44.8017 34.695 45.3162 34.635C45.861 34.545 46.4815 34.2 47.1776 33.6C47.8737 32.97 48.5244 32.07 49.1298 30.9C49.3114 30.39 49.4778 29.895 49.6292 29.415C49.8108 28.935 49.9621 28.53 50.0832 28.2C50.1134 27.45 49.9016 27 49.4476 26.85C49.0238 26.67 48.5093 26.76 47.904 27.12C47.2987 27.45 46.6631 28.02 45.9972 28.83C45.3314 29.64 44.7866 30.66 44.3629 31.89ZM63.4036 30.225C63.2523 30.465 62.9647 30.87 62.541 31.44C62.1476 32.01 61.6936 32.595 61.179 33.195C60.6645 33.795 60.1197 34.335 59.5447 34.815C58.9999 35.265 58.5156 35.49 58.0919 35.49C57.7287 35.49 57.4866 35.295 57.3655 34.905C57.2747 34.515 57.3504 33.81 57.5925 32.79L58.0011 31.44C57.7287 32.07 57.3352 32.67 56.8207 33.24C56.3062 33.78 55.7765 34.245 55.2317 34.635C54.6869 34.995 54.1573 35.25 53.6428 35.4C53.1282 35.52 52.7196 35.475 52.417 35.265C52.1143 35.055 51.963 34.635 51.963 34.005C51.963 33.375 52.2051 32.475 52.6894 31.305C52.9012 30.825 53.1736 30.345 53.5066 29.865C53.8698 29.355 54.2481 28.89 54.6415 28.47C55.0653 28.05 55.489 27.69 55.9127 27.39C56.3667 27.06 56.8056 26.82 57.2293 26.67C57.653 26.52 58.107 26.475 58.5913 26.535C59.1058 26.595 59.4841 26.85 59.7263 27.3C60.0289 26.82 60.3013 26.565 60.5434 26.535C60.7856 26.475 60.9672 26.535 61.0882 26.715C61.2396 26.895 61.3304 27.135 61.3606 27.435C61.3909 27.705 61.3606 27.93 61.2698 28.11C61.2698 27.96 61.2547 27.84 61.2244 27.75C61.1639 27.54 61.0126 27.54 60.7704 27.75C60.4375 28.02 60.15 28.425 59.9079 28.965C59.6657 29.505 59.4539 30.045 59.2723 30.585C59.0907 31.125 58.9393 31.62 58.8183 32.07C58.7275 32.49 58.6669 32.745 58.6367 32.835C58.4551 33.495 58.4248 33.96 58.5459 34.23C58.6669 34.47 58.8788 34.545 59.1815 34.455C59.5144 34.365 59.8776 34.14 60.2711 33.78C60.6645 33.42 61.058 33.015 61.4514 32.565C61.8449 32.085 62.2081 31.62 62.541 31.17C62.8739 30.69 63.1312 30.285 63.3128 29.955L63.4036 30.225ZM58.5459 29.865C59.1209 28.665 59.2723 27.81 58.9999 27.3C58.7275 26.79 58.2583 26.61 57.5925 26.76C56.9266 26.91 56.1851 27.405 55.3679 28.245C54.5507 29.085 53.8698 30.27 53.325 31.8C52.9618 32.85 52.9164 33.6 53.1888 34.05C53.4914 34.5 53.9303 34.65 54.5053 34.5C55.1107 34.35 55.7917 33.9 56.5483 33.15C57.305 32.37 57.9708 31.275 58.5459 29.865ZM72.3423 30.45C72.1304 30.78 71.8429 31.215 71.4797 31.755C71.1165 32.265 70.7079 32.79 70.2539 33.33C69.7999 33.84 69.3308 34.305 68.8465 34.725C68.3623 35.115 67.9083 35.355 67.4845 35.445C67.0305 35.535 66.7279 35.445 66.5765 35.175C66.4252 34.875 66.3798 34.5 66.4404 34.05C66.5311 33.57 66.6976 32.97 66.9397 32.25C67.2121 31.5 67.4694 30.78 67.7115 30.09C67.9537 29.4 68.1201 28.785 68.2109 28.245C68.3017 27.705 68.2109 27.375 67.9385 27.255C67.7569 27.225 67.4543 27.33 67.0305 27.57C66.6371 27.78 66.2134 28.05 65.7594 28.38C65.3356 28.71 64.9422 29.04 64.579 29.37C64.2158 29.7 63.9888 29.925 63.898 30.045C63.7164 30.345 63.5045 30.78 63.2624 31.35C63.0203 31.89 62.7781 32.46 62.536 33.06C62.3242 33.63 62.1123 34.155 61.9004 34.635C61.7188 35.085 61.5826 35.355 61.4918 35.445C61.3708 35.595 61.3556 35.49 61.4464 35.13C61.507 34.74 61.6129 34.23 61.7642 33.6C61.9458 32.97 62.1577 32.28 62.3998 31.53C62.642 30.78 62.8841 30.105 63.1262 29.505C63.1867 29.325 63.2624 29.13 63.3532 28.92C63.4743 28.68 63.5651 28.47 63.6256 28.29C63.7164 28.08 63.7921 27.855 63.8526 27.615C63.9131 27.465 63.898 27.36 63.8072 27.3C63.7467 27.24 63.671 27.225 63.5802 27.255C63.4591 27.285 63.3229 27.345 63.1716 27.435C63.8677 26.865 64.3369 26.595 64.579 26.625C64.8211 26.655 64.927 26.82 64.8968 27.12C64.8968 27.42 64.806 27.795 64.6244 28.245C64.473 28.665 64.3369 29.01 64.2158 29.28C64.3369 29.1 64.6244 28.83 65.0784 28.47C65.5324 28.11 66.0318 27.765 66.5765 27.435C67.1213 27.105 67.6359 26.85 68.1201 26.67C68.6346 26.49 68.9827 26.49 69.1643 26.67C69.3762 26.88 69.4518 27.21 69.3913 27.66C69.361 28.11 69.2702 28.62 69.1189 29.19C68.9676 29.76 68.7708 30.375 68.5287 31.035C68.3169 31.665 68.1201 32.295 67.9385 32.925C67.7569 33.645 67.7267 34.11 67.8477 34.32C67.9688 34.53 68.1655 34.575 68.4379 34.455C68.7103 34.335 69.0432 34.08 69.4367 33.69C69.8302 33.3 70.2085 32.88 70.5717 32.43C70.9651 31.98 71.3283 31.53 71.6613 31.08C71.9942 30.6 72.2363 30.225 72.3877 29.955L72.3423 30.45ZM95.318 20.865C96.7102 20.775 98.0419 20.46 99.3131 19.92C100.584 19.35 101.75 18.615 102.809 17.715C102.082 18.645 101.265 19.38 100.357 19.92C99.4493 20.46 98.4657 20.88 97.4063 21.18C96.3773 21.45 95.2877 21.63 94.1376 21.72C92.9875 21.78 91.8222 21.78 90.6419 21.72C89.2799 21.66 87.9028 21.57 86.5105 21.45C85.1485 21.33 83.7109 21.27 82.1976 21.27C81.3501 21.27 80.4876 21.27 79.6098 21.27C78.7624 21.27 77.8998 21.285 77.0221 21.315C76.9616 21.465 76.8859 21.6 76.7951 21.72C76.7043 21.84 76.6286 21.975 76.5681 22.125C76.0536 23.115 75.5692 24.12 75.1152 25.14C74.6612 26.13 74.2223 27.15 73.7986 28.2C73.7078 28.38 73.5716 28.74 73.39 29.28C73.2084 29.79 73.0117 30.36 72.7998 30.99C72.6182 31.62 72.4669 32.235 72.3458 32.835C72.2247 33.405 72.1945 33.84 72.255 34.14C72.3458 34.44 72.5425 34.56 72.8452 34.5C73.1781 34.41 73.6927 33.99 74.3888 33.24C74.9033 32.73 75.3724 32.175 75.7963 31.575C76.2503 30.975 76.6286 30.435 76.9313 29.955V30.36C76.6892 30.75 76.3411 31.245 75.8871 31.845C75.4632 32.415 74.9941 32.97 74.4796 33.51C74.0256 34.02 73.5565 34.47 73.0722 34.86C72.6182 35.25 72.2247 35.46 71.8918 35.49C71.5892 35.55 71.3773 35.4 71.2562 35.04C71.1654 34.65 71.2411 33.93 71.4832 32.88C71.907 30.9 72.5123 28.965 73.2992 27.075C74.1164 25.185 74.9941 23.28 75.9325 21.36C75.8417 21.36 75.7509 21.375 75.66 21.405C75.5692 21.405 75.4784 21.405 75.3876 21.405C73.2387 21.555 71.12 21.825 69.0317 22.215C66.9433 22.605 64.749 23.115 62.4488 23.745C62.6606 23.685 62.8574 23.625 63.039 23.565C63.2206 23.475 63.4022 23.4 63.5838 23.34C67.7302 22.08 71.9372 21.225 76.2049 20.775C76.7194 19.695 77.2945 18.555 77.9301 17.355C78.5657 16.125 79.2466 14.91 79.973 13.71C80.7297 12.51 81.5317 11.37 82.3792 10.29C83.2266 9.18 84.1195 8.19 85.0578 7.32C85.4512 6.93 85.7841 6.735 86.0565 6.735C86.3592 6.705 86.5862 6.78 86.7375 6.96C86.9191 7.11 87.0251 7.32 87.0553 7.59C87.0856 7.86 87.0553 8.085 86.9645 8.265C86.9645 8.145 86.9494 8.04 86.9191 7.95C86.8586 7.77 86.7073 7.74 86.4651 7.86C85.5874 8.4 84.7097 9.18 83.832 10.2C82.9543 11.22 82.1219 12.345 81.335 13.575C80.5481 14.775 79.8066 16.005 79.1104 17.265C78.4446 18.525 77.8544 19.665 77.3399 20.685C77.6728 20.685 78.0209 20.685 78.3841 20.685C78.7473 20.655 79.2769 20.625 79.973 20.595C81.2442 20.565 82.5003 20.58 83.7412 20.64C85.0123 20.7 86.2835 20.775 87.5547 20.865C88.8562 20.925 90.1425 20.97 91.4136 21C92.7151 21.03 94.0165 20.985 95.318 20.865ZM116.755 2.01C115.938 3.24 115.135 4.485 114.349 5.745C113.592 6.975 112.835 8.22 112.079 9.48C111.231 10.92 110.384 12.36 109.536 13.8C108.719 15.24 107.902 16.68 107.085 18.12C105.723 20.52 104.452 22.77 103.271 24.87C102.091 26.97 100.971 29.085 99.9116 31.215C99.5787 31.875 99.2458 32.52 98.9128 33.15C98.5799 33.78 98.2924 34.44 98.0503 35.13C98.02 35.19 97.9897 35.25 97.9595 35.31C97.9595 35.37 97.9443 35.43 97.9141 35.49C98.247 33.99 98.701 32.58 99.276 31.26C99.8814 29.94 100.487 28.635 101.092 27.345C101.788 25.815 102.515 24.315 103.271 22.845C104.058 21.375 104.86 19.905 105.677 18.435C107.312 15.585 108.976 12.81 110.671 10.11C112.366 7.41 114.258 4.86 116.346 2.46C116.407 2.4 116.467 2.325 116.528 2.235C116.619 2.145 116.694 2.07 116.755 2.01ZM163.374 5.25C165.069 4.95 166.689 4.515 168.232 3.945C169.776 3.345 171.304 2.415 172.818 1.155C172 1.965 171.107 2.655 170.139 3.225C168.838 3.975 167.46 4.56 166.008 4.98C164.555 5.4 163.072 5.715 161.558 5.925C160.318 6.075 159.092 6.135 157.881 6.105C156.701 6.075 155.505 5.97 154.295 5.79C153.084 5.61 151.873 5.385 150.663 5.115C149.452 4.845 148.226 4.56 146.985 4.26C146.925 4.26 146.758 4.425 146.486 4.755C146.214 5.055 145.926 5.43 145.623 5.88C145.321 6.3 145.033 6.72 144.761 7.14C144.488 7.53 144.307 7.785 144.216 7.905C143.338 9.285 142.506 10.695 141.719 12.135C140.932 13.575 140.175 15.03 139.449 16.5C140.054 16.32 140.66 16.125 141.265 15.915C141.87 15.675 142.476 15.435 143.081 15.195C143.142 15.165 143.172 15.105 143.172 15.015C143.202 14.925 143.217 14.85 143.217 14.79C143.278 14.55 143.323 14.325 143.353 14.115C143.414 13.905 143.505 13.68 143.626 13.44C143.959 12.63 144.443 11.88 145.079 11.19C145.744 10.47 146.471 9.9 147.258 9.48C147.47 9.36 147.712 9.255 147.984 9.165C148.287 9.045 148.574 8.97 148.847 8.94C149.149 8.91 149.437 8.94 149.709 9.03C149.982 9.09 150.209 9.24 150.39 9.48C150.632 9.78 150.723 10.11 150.663 10.47C150.602 10.83 150.481 11.145 150.299 11.415C149.543 12.465 148.559 13.275 147.349 13.845C146.138 14.415 144.927 14.94 143.717 15.42C143.656 15.45 143.58 15.48 143.49 15.51C143.399 15.54 143.353 15.585 143.353 15.645C143.353 16.185 143.429 16.71 143.58 17.22C143.762 17.73 144.065 18.195 144.488 18.615C145.003 19.125 145.578 19.485 146.214 19.695C146.879 19.905 147.56 20.04 148.257 20.1C147.651 20.13 147.046 20.07 146.441 19.92C145.835 19.77 145.275 19.5 144.761 19.11C144.246 18.69 143.853 18.18 143.58 17.58C143.308 16.95 143.172 16.305 143.172 15.645C142.566 15.885 141.946 16.095 141.31 16.275C140.705 16.455 140.085 16.62 139.449 16.77C139.298 16.83 139.222 16.875 139.222 16.905C139.101 17.175 138.965 17.445 138.813 17.715C138.692 17.985 138.586 18.21 138.496 18.39C137.921 19.53 137.27 20.82 136.544 22.26C135.847 23.67 135.06 25.14 134.183 26.67C133.335 28.2 132.412 29.73 131.413 31.26C130.415 32.79 129.355 34.215 128.235 35.535C127.146 36.885 125.981 38.07 124.74 39.09C123.499 40.11 122.212 40.875 120.881 41.385C120.336 41.595 119.746 41.76 119.11 41.88C118.505 42 117.884 42.045 117.249 42.015C116.644 42.015 116.053 41.895 115.478 41.655C114.933 41.445 114.434 41.115 113.98 40.665C113.405 40.095 112.996 39.45 112.754 38.73C112.512 38.01 112.376 37.26 112.346 36.48C112.315 35.7 112.391 34.935 112.573 34.185C112.754 33.405 112.981 32.67 113.254 31.98C113.859 30.48 114.661 29.1 115.66 27.84C116.689 26.58 117.854 25.47 119.156 24.51C119.882 23.97 120.76 23.43 121.789 22.89C122.848 22.35 123.953 21.87 125.103 21.45C126.253 21 127.403 20.655 128.553 20.415C129.734 20.145 130.793 20.04 131.731 20.1C132.337 20.16 132.685 20.295 132.775 20.505C132.896 20.715 132.851 20.955 132.639 21.225C132.458 21.465 132.17 21.705 131.777 21.945C131.413 22.155 131.05 22.305 130.687 22.395C130.717 22.395 130.793 22.335 130.914 22.215C131.065 22.095 131.186 21.96 131.277 21.81C131.368 21.63 131.398 21.465 131.368 21.315C131.368 21.135 131.247 21 131.005 20.91C130.672 20.79 130.339 20.73 130.006 20.73C129.673 20.73 129.34 20.76 129.007 20.82C128.795 20.85 128.447 20.925 127.963 21.045C127.479 21.135 126.919 21.27 126.283 21.45C125.648 21.63 124.952 21.855 124.195 22.125C123.469 22.395 122.742 22.71 122.016 23.07C120.563 23.76 119.231 24.675 118.021 25.815C116.81 26.955 115.826 28.23 115.07 29.64C114.706 30.3 114.389 31.02 114.116 31.8C113.874 32.58 113.708 33.39 113.617 34.23C113.526 35.04 113.526 35.85 113.617 36.66C113.708 37.5 113.935 38.28 114.298 39C114.601 39.6 115.009 40.05 115.524 40.35C116.038 40.68 116.583 40.905 117.158 41.025C117.763 41.145 118.384 41.16 119.019 41.07C119.685 41.01 120.336 40.89 120.972 40.71C122.455 40.23 123.786 39.465 124.967 38.415C126.177 37.365 127.267 36.165 128.235 34.815C129.204 33.465 130.097 32.04 130.914 30.54C131.731 29.01 132.503 27.525 133.229 26.085C134.016 24.585 134.788 23.1 135.545 21.63C136.332 20.16 137.119 18.675 137.905 17.175C136.544 17.475 135.166 17.73 133.774 17.94C132.382 18.12 130.99 18.195 129.597 18.165C128.357 18.165 127.116 18.015 125.875 17.715C124.634 17.415 123.605 16.935 122.788 16.275C121.97 15.615 121.456 14.775 121.244 13.755C121.062 12.705 121.395 11.445 122.243 9.975C122.818 9.045 123.529 8.22 124.377 7.5C125.224 6.78 126.147 6.15 127.146 5.61C128.145 5.07 129.189 4.635 130.278 4.305C131.398 3.945 132.503 3.645 133.593 3.405C135.62 2.985 137.694 2.73 139.812 2.64C141.931 2.52 144.034 2.685 146.123 3.135L147.349 3.405C147.833 2.925 148.347 2.46 148.892 2.01C149.437 1.56 150.042 1.08 150.708 0.570002C150.98 0.360002 151.268 0.210002 151.571 0.120001C151.873 7.93487e-07 152.115 -0.03 152.297 0.0299993C152.509 0.0900008 152.66 0.240002 152.751 0.480002C152.842 0.690002 152.827 1.005 152.706 1.425C152.494 1.995 152.115 2.475 151.571 2.865C151.631 2.835 151.677 2.715 151.707 2.505C151.767 2.265 151.798 2.07 151.798 1.92C151.798 1.47 151.616 1.275 151.253 1.335C150.89 1.365 150.466 1.515 149.982 1.785C149.497 2.025 149.028 2.325 148.574 2.685C148.151 3.045 147.848 3.315 147.666 3.495C149.059 3.855 150.39 4.185 151.661 4.485C152.933 4.785 154.189 5.025 155.43 5.205C156.671 5.385 157.942 5.49 159.243 5.52C160.545 5.55 161.922 5.46 163.374 5.25ZM146.668 10.245C145.881 10.755 145.169 11.445 144.534 12.315C143.928 13.155 143.535 14.07 143.353 15.06C143.686 14.91 144.201 14.655 144.897 14.295C145.623 13.905 146.35 13.47 147.076 12.99C147.803 12.51 148.438 12.015 148.983 11.505C149.528 10.965 149.8 10.47 149.8 10.02C149.8 9.69 149.618 9.495 149.255 9.435C148.922 9.375 148.65 9.375 148.438 9.435C148.105 9.495 147.787 9.6 147.485 9.75C147.212 9.9 146.94 10.065 146.668 10.245ZM138.087 16.815C139.237 14.625 140.478 12.45 141.81 10.29C143.142 8.1 144.715 6.06 146.531 4.17C144.958 3.84 143.384 3.63 141.81 3.54C140.266 3.45 138.692 3.45 137.088 3.54C135.484 3.66 133.895 3.87 132.321 4.17C130.748 4.47 129.234 4.965 127.781 5.655C127.055 5.985 126.344 6.375 125.648 6.825C124.952 7.275 124.331 7.8 123.786 8.4C123.484 8.76 123.181 9.18 122.878 9.66C122.606 10.11 122.379 10.605 122.197 11.145C122.046 11.655 121.955 12.18 121.925 12.72C121.895 13.26 122.001 13.785 122.243 14.295C122.818 15.285 123.726 16.035 124.967 16.545C126.238 17.025 127.6 17.34 129.053 17.49C130.536 17.61 132.019 17.61 133.502 17.49C134.985 17.37 136.256 17.205 137.315 16.995C137.376 16.995 137.527 16.965 137.769 16.905C137.89 16.875 137.996 16.845 138.087 16.815ZM148.114 30.45C147.872 30.87 147.539 31.35 147.115 31.89C146.692 32.43 146.223 32.97 145.708 33.51C145.194 34.08 144.679 34.575 144.165 34.995C143.68 35.385 143.272 35.55 142.939 35.49C142.606 35.52 142.379 35.34 142.258 34.95C142.137 34.53 142.197 33.81 142.439 32.79L142.576 32.25C142.666 31.89 142.848 31.35 143.12 30.63C142.787 31.05 142.379 31.56 141.895 32.16C141.41 32.76 140.911 33.33 140.396 33.87C139.882 34.38 139.367 34.8 138.853 35.13C138.338 35.46 137.884 35.58 137.491 35.49C137.067 35.37 136.87 35.055 136.901 34.545C136.901 34.035 137.007 33.465 137.218 32.835C137.43 32.205 137.688 31.59 137.99 30.99C138.293 30.36 138.52 29.88 138.671 29.55C138.823 29.22 139.004 28.845 139.216 28.425C139.458 28.005 139.594 27.72 139.625 27.57C139.655 27.42 139.625 27.33 139.534 27.3C139.473 27.24 139.398 27.225 139.307 27.255C139.186 27.285 139.05 27.33 138.898 27.39C139.564 26.85 140.033 26.58 140.306 26.58C140.578 26.58 140.714 26.73 140.714 27.03C140.744 27.3 140.669 27.66 140.487 28.11C140.336 28.53 140.185 28.89 140.033 29.19C139.307 30.63 138.777 31.83 138.444 32.79C138.142 33.72 138.157 34.32 138.49 34.59C138.641 34.74 138.944 34.635 139.398 34.275C139.852 33.915 140.336 33.465 140.85 32.925C141.365 32.355 141.864 31.785 142.349 31.215C142.833 30.615 143.181 30.165 143.393 29.865C143.544 29.535 143.68 29.19 143.801 28.83C143.953 28.44 144.134 28.035 144.346 27.615C144.679 26.955 144.967 26.58 145.209 26.49C145.481 26.37 145.693 26.4 145.844 26.58C146.026 26.76 146.132 27.015 146.162 27.345C146.223 27.675 146.207 27.93 146.117 28.11C146.086 27.99 146.056 27.885 146.026 27.795C145.965 27.735 145.905 27.69 145.844 27.66C145.814 27.63 145.738 27.66 145.617 27.75C145.284 28.02 144.997 28.425 144.755 28.965C144.513 29.505 144.301 30.06 144.119 30.63C143.938 31.17 143.786 31.665 143.665 32.115C143.574 32.535 143.514 32.775 143.484 32.835C143.181 34.125 143.362 34.665 144.028 34.455C144.361 34.365 144.664 34.185 144.936 33.915C145.209 33.615 145.466 33.345 145.708 33.105C146.162 32.625 146.616 32.085 147.07 31.485C147.554 30.885 147.918 30.375 148.16 29.955L148.114 30.45ZM154.834 30.585C154.592 30.945 154.259 31.41 153.835 31.98C153.412 32.52 152.958 33.06 152.473 33.6C151.989 34.14 151.49 34.605 150.975 34.995C150.491 35.355 150.052 35.535 149.659 35.535C149.416 35.535 149.22 35.43 149.068 35.22C148.917 35.01 148.902 34.65 149.023 34.14C149.174 33.48 149.386 32.85 149.659 32.25C149.931 31.62 150.249 30.96 150.612 30.27C150.733 30 150.824 29.7 150.884 29.37C150.975 29.01 150.869 28.71 150.567 28.47C150.506 28.41 150.34 28.29 150.067 28.11C149.825 27.93 149.689 27.855 149.659 27.885C149.568 28.095 149.416 28.38 149.205 28.74C148.993 29.07 148.781 29.4 148.569 29.73C148.297 30.12 148.024 30.54 147.752 30.99C147.691 31.05 147.631 31.065 147.57 31.035C147.54 30.975 147.54 30.915 147.57 30.855C147.57 30.855 147.661 30.72 147.843 30.45C148.024 30.18 148.221 29.88 148.433 29.55C148.645 29.19 148.841 28.845 149.023 28.515C149.235 28.185 149.371 27.945 149.432 27.795C148.705 27.435 148.342 27.03 148.342 26.58C148.342 26.1 148.478 25.725 148.751 25.455C149.023 25.185 149.326 25.11 149.659 25.23C149.992 25.32 150.128 25.74 150.067 26.49C150.037 26.73 149.992 26.97 149.931 27.21C149.87 27.42 149.81 27.57 149.749 27.66C149.961 27.78 150.219 27.9 150.521 28.02C150.824 28.11 151.096 28.215 151.338 28.335C151.611 28.455 151.792 28.605 151.883 28.785C151.974 28.935 152.004 29.1 151.974 29.28C151.974 29.46 151.929 29.64 151.838 29.82C151.777 29.97 151.717 30.105 151.656 30.225C151.384 30.735 151.142 31.275 150.93 31.845C150.718 32.385 150.521 32.955 150.34 33.555C150.158 34.365 150.203 34.77 150.476 34.77C150.748 34.77 151.127 34.56 151.611 34.14C152.095 33.69 152.625 33.105 153.2 32.385C153.805 31.665 154.32 30.975 154.743 30.315L154.834 30.585ZM149.522 27.57C149.643 27.36 149.734 27.12 149.795 26.85C149.886 26.58 149.886 26.325 149.795 26.085C149.643 25.875 149.492 25.815 149.341 25.905C149.189 25.995 149.084 26.145 149.023 26.355C148.962 26.565 148.962 26.805 149.023 27.075C149.084 27.315 149.25 27.48 149.522 27.57ZM164.116 30.45C163.904 30.78 163.617 31.215 163.253 31.755C162.89 32.265 162.482 32.79 162.028 33.33C161.574 33.84 161.104 34.305 160.62 34.725C160.136 35.115 159.682 35.355 159.258 35.445C158.804 35.535 158.502 35.445 158.35 35.175C158.199 34.875 158.154 34.5 158.214 34.05C158.305 33.57 158.471 32.97 158.713 32.25C158.986 31.5 159.243 30.78 159.485 30.09C159.727 29.4 159.894 28.785 159.985 28.245C160.075 27.705 159.985 27.375 159.712 27.255C159.531 27.225 159.228 27.33 158.804 27.57C158.411 27.78 157.987 28.05 157.533 28.38C157.109 28.71 156.716 29.04 156.353 29.37C155.99 29.7 155.763 29.925 155.672 30.045C155.49 30.345 155.278 30.78 155.036 31.35C154.794 31.89 154.552 32.46 154.31 33.06C154.098 33.63 153.886 34.155 153.674 34.635C153.493 35.085 153.356 35.355 153.266 35.445C153.145 35.595 153.129 35.49 153.22 35.13C153.281 34.74 153.387 34.23 153.538 33.6C153.72 32.97 153.931 32.28 154.174 31.53C154.416 30.78 154.658 30.105 154.9 29.505C154.96 29.325 155.036 29.13 155.127 28.92C155.248 28.68 155.339 28.47 155.399 28.29C155.49 28.08 155.566 27.855 155.626 27.615C155.687 27.465 155.672 27.36 155.581 27.3C155.52 27.24 155.445 27.225 155.354 27.255C155.233 27.285 155.097 27.345 154.945 27.435C155.641 26.865 156.111 26.595 156.353 26.625C156.595 26.655 156.701 26.82 156.671 27.12C156.671 27.42 156.58 27.795 156.398 28.245C156.247 28.665 156.111 29.01 155.99 29.28C156.111 29.1 156.398 28.83 156.852 28.47C157.306 28.11 157.805 27.765 158.35 27.435C158.895 27.105 159.41 26.85 159.894 26.67C160.408 26.49 160.756 26.49 160.938 26.67C161.15 26.88 161.226 27.21 161.165 27.66C161.135 28.11 161.044 28.62 160.893 29.19C160.741 29.76 160.545 30.375 160.302 31.035C160.091 31.665 159.894 32.295 159.712 32.925C159.531 33.645 159.5 34.11 159.621 34.32C159.743 34.53 159.939 34.575 160.212 34.455C160.484 34.335 160.817 34.08 161.21 33.69C161.604 33.3 161.982 32.88 162.345 32.43C162.739 31.98 163.102 31.53 163.435 31.08C163.768 30.6 164.01 30.225 164.161 29.955L164.116 30.45ZM166.435 24.105C166.163 24.045 166.011 23.925 165.981 23.745C165.981 23.565 166.027 23.385 166.117 23.205C166.238 23.025 166.375 22.875 166.526 22.755C166.708 22.635 166.874 22.59 167.025 22.62C167.146 22.65 167.237 22.755 167.298 22.935C167.389 23.115 167.419 23.31 167.389 23.52C167.358 23.73 167.267 23.91 167.116 24.06C166.965 24.18 166.738 24.195 166.435 24.105ZM168.523 29.955V30.36C168.281 30.78 167.948 31.26 167.525 31.8C167.101 32.34 166.632 32.88 166.117 33.42C165.028 34.65 164.105 35.31 163.348 35.4C163.015 35.43 162.803 35.235 162.712 34.815C162.622 34.395 162.682 33.69 162.894 32.7C162.955 32.37 163.06 31.95 163.212 31.44C163.363 31.02 163.545 30.495 163.757 29.865C163.999 29.205 164.332 28.44 164.755 27.57C165.119 26.91 165.421 26.535 165.663 26.445C165.936 26.325 166.148 26.355 166.299 26.535C166.45 26.685 166.541 26.925 166.571 27.255C166.632 27.585 166.617 27.84 166.526 28.02C166.496 27.9 166.465 27.795 166.435 27.705C166.375 27.645 166.314 27.6 166.254 27.57C166.223 27.54 166.148 27.57 166.027 27.66C165.694 27.93 165.406 28.335 165.164 28.875C164.922 29.415 164.71 29.97 164.528 30.54C164.347 31.08 164.195 31.575 164.074 32.025C163.984 32.445 163.938 32.685 163.938 32.745C163.817 33.435 163.817 33.87 163.938 34.05C164.059 34.2 164.271 34.23 164.574 34.14C164.937 34.02 165.3 33.795 165.663 33.465C166.057 33.105 166.435 32.73 166.798 32.34C167.162 31.92 167.494 31.5 167.797 31.08C168.1 30.66 168.342 30.285 168.523 29.955ZM191.481 20.865C192.873 20.775 194.205 20.46 195.476 19.92C196.747 19.35 197.913 18.615 198.972 17.715C198.246 18.645 197.428 19.38 196.52 19.92C195.612 20.46 194.629 20.88 193.57 21.18C192.54 21.45 191.451 21.63 190.301 21.72C189.151 21.78 187.985 21.78 186.805 21.72C185.443 21.66 184.066 21.57 182.674 21.45C181.312 21.33 179.874 21.27 178.361 21.27C177.513 21.27 176.651 21.27 175.773 21.27C174.926 21.27 174.063 21.285 173.185 21.315C173.125 21.465 173.049 21.6 172.958 21.72C172.867 21.84 172.792 21.975 172.731 22.125C172.217 23.115 171.732 24.12 171.278 25.14C170.824 26.13 170.386 27.15 169.962 28.2C169.871 28.38 169.735 28.74 169.553 29.28C169.372 29.79 169.175 30.36 168.963 30.99C168.782 31.62 168.63 32.235 168.509 32.835C168.388 33.405 168.358 33.84 168.418 34.14C168.509 34.44 168.706 34.56 169.009 34.5C169.341 34.41 169.856 33.99 170.552 33.24C171.067 32.73 171.536 32.175 171.959 31.575C172.413 30.975 172.792 30.435 173.094 29.955V30.36C172.852 30.75 172.504 31.245 172.05 31.845C171.627 32.415 171.157 32.97 170.643 33.51C170.189 34.02 169.72 34.47 169.236 34.86C168.782 35.25 168.388 35.46 168.055 35.49C167.752 35.55 167.541 35.4 167.42 35.04C167.329 34.65 167.404 33.93 167.647 32.88C168.07 30.9 168.676 28.965 169.463 27.075C170.28 25.185 171.157 23.28 172.096 21.36C172.005 21.36 171.914 21.375 171.823 21.405C171.732 21.405 171.642 21.405 171.551 21.405C169.402 21.555 167.283 21.825 165.195 22.215C163.107 22.605 160.912 23.115 158.612 23.745C158.824 23.685 159.021 23.625 159.202 23.565C159.384 23.475 159.565 23.4 159.747 23.34C163.894 22.08 168.101 21.225 172.368 20.775C172.883 19.695 173.458 18.555 174.093 17.355C174.729 16.125 175.41 14.91 176.136 13.71C176.893 12.51 177.695 11.37 178.542 10.29C179.39 9.18 180.283 8.19 181.221 7.32C181.614 6.93 181.947 6.735 182.22 6.735C182.522 6.705 182.749 6.78 182.901 6.96C183.082 7.11 183.188 7.32 183.218 7.59C183.249 7.86 183.218 8.085 183.128 8.265C183.128 8.145 183.113 8.04 183.082 7.95C183.022 7.77 182.87 7.74 182.628 7.86C181.751 8.4 180.873 9.18 179.995 10.2C179.117 11.22 178.285 12.345 177.498 13.575C176.711 14.775 175.97 16.005 175.274 17.265C174.608 18.525 174.018 19.665 173.503 20.685C173.836 20.685 174.184 20.685 174.547 20.685C174.91 20.655 175.44 20.625 176.136 20.595C177.407 20.565 178.663 20.58 179.904 20.64C181.176 20.7 182.447 20.775 183.718 20.865C185.019 20.925 186.306 20.97 187.577 21C188.878 21.03 190.18 20.985 191.481 20.865ZM182.385 30.45C182.143 30.87 181.81 31.35 181.387 31.89C180.963 32.43 180.494 32.97 179.979 33.51C179.465 34.08 178.95 34.575 178.436 34.995C177.951 35.385 177.543 35.55 177.21 35.49C176.877 35.52 176.65 35.34 176.529 34.95C176.408 34.53 176.468 33.81 176.71 32.79L176.847 32.25C176.937 31.89 177.119 31.35 177.391 30.63C177.059 31.05 176.65 31.56 176.166 32.16C175.681 32.76 175.182 33.33 174.668 33.87C174.153 34.38 173.638 34.8 173.124 35.13C172.609 35.46 172.155 35.58 171.762 35.49C171.338 35.37 171.142 35.055 171.172 34.545C171.172 34.035 171.278 33.465 171.49 32.835C171.701 32.205 171.959 31.59 172.261 30.99C172.564 30.36 172.791 29.88 172.942 29.55C173.094 29.22 173.275 28.845 173.487 28.425C173.729 28.005 173.865 27.72 173.896 27.57C173.926 27.42 173.896 27.33 173.805 27.3C173.744 27.24 173.669 27.225 173.578 27.255C173.457 27.285 173.321 27.33 173.169 27.39C173.835 26.85 174.304 26.58 174.577 26.58C174.849 26.58 174.985 26.73 174.985 27.03C175.016 27.3 174.94 27.66 174.758 28.11C174.607 28.53 174.456 28.89 174.304 29.19C173.578 30.63 173.048 31.83 172.715 32.79C172.413 33.72 172.428 34.32 172.761 34.59C172.912 34.74 173.215 34.635 173.669 34.275C174.123 33.915 174.607 33.465 175.122 32.925C175.636 32.355 176.135 31.785 176.62 31.215C177.104 30.615 177.452 30.165 177.664 29.865C177.815 29.535 177.951 29.19 178.072 28.83C178.224 28.44 178.405 28.035 178.617 27.615C178.95 26.955 179.238 26.58 179.48 26.49C179.752 26.37 179.964 26.4 180.115 26.58C180.297 26.76 180.403 27.015 180.433 27.345C180.494 27.675 180.479 27.93 180.388 28.11C180.358 27.99 180.327 27.885 180.297 27.795C180.237 27.735 180.176 27.69 180.115 27.66C180.085 27.63 180.01 27.66 179.888 27.75C179.556 28.02 179.268 28.425 179.026 28.965C178.784 29.505 178.572 30.06 178.39 30.63C178.209 31.17 178.057 31.665 177.936 32.115C177.845 32.535 177.785 32.775 177.755 32.835C177.452 34.125 177.634 34.665 178.299 34.455C178.632 34.365 178.935 34.185 179.207 33.915C179.48 33.615 179.737 33.345 179.979 33.105C180.433 32.625 180.887 32.085 181.341 31.485C181.825 30.885 182.189 30.375 182.431 29.955L182.385 30.45ZM189.105 30.585C188.863 30.945 188.53 31.41 188.106 31.98C187.683 32.52 187.229 33.06 186.744 33.6C186.26 34.14 185.761 34.605 185.246 34.995C184.762 35.355 184.323 35.535 183.93 35.535C183.688 35.535 183.491 35.43 183.34 35.22C183.188 35.01 183.173 34.65 183.294 34.14C183.445 33.48 183.657 32.85 183.93 32.25C184.202 31.62 184.52 30.96 184.883 30.27C185.004 30 185.095 29.7 185.156 29.37C185.246 29.01 185.14 28.71 184.838 28.47C184.777 28.41 184.611 28.29 184.338 28.11C184.096 27.93 183.96 27.855 183.93 27.885C183.839 28.095 183.688 28.38 183.476 28.74C183.264 29.07 183.052 29.4 182.84 29.73C182.568 30.12 182.295 30.54 182.023 30.99C181.962 31.05 181.902 31.065 181.841 31.035C181.811 30.975 181.811 30.915 181.841 30.855C181.841 30.855 181.932 30.72 182.114 30.45C182.295 30.18 182.492 29.88 182.704 29.55C182.916 29.19 183.113 28.845 183.294 28.515C183.506 28.185 183.642 27.945 183.703 27.795C182.976 27.435 182.613 27.03 182.613 26.58C182.613 26.1 182.749 25.725 183.022 25.455C183.294 25.185 183.597 25.11 183.93 25.23C184.263 25.32 184.399 25.74 184.338 26.49C184.308 26.73 184.263 26.97 184.202 27.21C184.142 27.42 184.081 27.57 184.021 27.66C184.232 27.78 184.49 27.9 184.792 28.02C185.095 28.11 185.367 28.215 185.609 28.335C185.882 28.455 186.063 28.605 186.154 28.785C186.245 28.935 186.275 29.1 186.245 29.28C186.245 29.46 186.2 29.64 186.109 29.82C186.048 29.97 185.988 30.105 185.927 30.225C185.655 30.735 185.413 31.275 185.201 31.845C184.989 32.385 184.792 32.955 184.611 33.555C184.429 34.365 184.475 34.77 184.747 34.77C185.019 34.77 185.398 34.56 185.882 34.14C186.366 33.69 186.896 33.105 187.471 32.385C188.076 31.665 188.591 30.975 189.014 30.315L189.105 30.585ZM183.794 27.57C183.915 27.36 184.005 27.12 184.066 26.85C184.157 26.58 184.157 26.325 184.066 26.085C183.915 25.875 183.763 25.815 183.612 25.905C183.461 25.995 183.355 26.145 183.294 26.355C183.234 26.565 183.234 26.805 183.294 27.075C183.355 27.315 183.521 27.48 183.794 27.57ZM195.89 30.45C195.799 30.54 195.587 30.855 195.255 31.395C194.922 31.935 194.483 32.505 193.938 33.105C193.393 33.705 192.773 34.245 192.077 34.725C191.381 35.205 190.639 35.445 189.852 35.445H189.625C189.353 35.415 189.08 35.31 188.808 35.13C188.535 34.92 188.308 34.605 188.127 34.185C187.976 33.765 187.915 33.24 187.945 32.61C188.006 31.95 188.248 31.155 188.672 30.225C189.005 29.475 189.519 28.755 190.215 28.065C190.911 27.375 191.683 26.91 192.531 26.67C193.166 26.49 193.756 26.49 194.301 26.67C194.876 26.85 195.149 27.21 195.118 27.75C195.088 28.26 194.634 28.92 193.756 29.73C192.879 30.54 191.32 31.485 189.08 32.565C189.05 33.225 189.141 33.705 189.353 34.005C189.595 34.275 189.837 34.455 190.079 34.545C190.382 34.665 190.715 34.695 191.078 34.635C191.532 34.545 191.986 34.335 192.44 34.005C192.924 33.645 193.378 33.24 193.802 32.79C194.226 32.34 194.619 31.875 194.982 31.395C195.345 30.885 195.663 30.405 195.936 29.955L195.89 30.45ZM192.576 26.85C191.789 27.18 191.154 27.645 190.669 28.245C190.215 28.815 189.867 29.4 189.625 30C189.413 30.6 189.262 31.125 189.171 31.575C189.111 31.995 189.08 32.205 189.08 32.205C190.624 31.545 191.774 30.855 192.531 30.135C193.287 29.415 193.756 28.785 193.938 28.245C194.12 27.675 194.074 27.255 193.802 26.985C193.529 26.685 193.121 26.64 192.576 26.85Z" fill="white"/>
</svg>
