<svg width="70" height="10" viewBox="0 0 70 10" fill="none" xmlns="http://www.w3.org/2000/svg">
<path d="M9.99119 3.80588C9.97007 3.73788 9.91404 3.68828 9.84656 3.67795L6.60851 3.18409L5.16043 0.104821C5.13036 0.040576 5.06807 0 5.00005 0C4.93203 0 4.86956 0.040576 4.83967 0.104821L3.39141 3.18428L0.153361 3.67814C0.0858792 3.68847 0.0300323 3.73788 0.00873171 3.80607C-0.0122109 3.87388 0.00515178 3.94865 0.0540178 3.99843L2.39726 6.39542L1.84398 9.78013C1.83253 9.85058 1.86009 9.92177 1.91504 9.96385C1.97035 10.0063 2.04356 10.0118 2.10353 9.97813L5.00005 8.38026L7.89621 9.97813C7.92234 9.99259 7.95116 9.99973 7.97962 9.99973C8.01668 9.99973 8.05355 9.98771 8.08487 9.96385C8.14 9.92177 8.16757 9.85058 8.15594 9.78013L7.60284 6.39561L9.94608 3.99843C9.99477 3.94827 10.0123 3.87369 9.99119 3.80588Z" fill="#FFB800"/>
<path d="M24.9912 3.80588C24.9701 3.73788 24.914 3.68828 24.8466 3.67795L21.6085 3.18409L20.1604 0.104821C20.1304 0.040576 20.0681 0 20 0C19.932 0 19.8696 0.040576 19.8397 0.104821L18.3914 3.18428L15.1534 3.67814C15.0859 3.68847 15.03 3.73788 15.0087 3.80607C14.9878 3.87388 15.0052 3.94865 15.054 3.99843L17.3973 6.39542L16.844 9.78013C16.8325 9.85058 16.8601 9.92177 16.915 9.96385C16.9704 10.0063 17.0436 10.0118 17.1035 9.97813L20 8.38026L22.8962 9.97813C22.9223 9.99259 22.9512 9.99973 22.9796 9.99973C23.0167 9.99973 23.0535 9.98771 23.0849 9.96385C23.14 9.92177 23.1676 9.85058 23.1559 9.78013L22.6028 6.39561L24.9461 3.99843C24.9948 3.94827 25.0123 3.87369 24.9912 3.80588Z" fill="#FFB800"/>
<path d="M39.9912 3.80588C39.9701 3.73788 39.914 3.68828 39.8466 3.67795L36.6085 3.18409L35.1604 0.104821C35.1304 0.040576 35.0681 0 35 0C34.932 0 34.8696 0.040576 34.8397 0.104821L33.3914 3.18428L30.1534 3.67814C30.0859 3.68847 30.03 3.73788 30.0087 3.80607C29.9878 3.87388 30.0052 3.94865 30.054 3.99843L32.3973 6.39542L31.844 9.78013C31.8325 9.85058 31.8601 9.92177 31.915 9.96385C31.9704 10.0063 32.0436 10.0118 32.1035 9.97813L35 8.38026L37.8962 9.97813C37.9223 9.99259 37.9512 9.99973 37.9796 9.99973C38.0167 9.99973 38.0535 9.98771 38.0849 9.96385C38.14 9.92177 38.1676 9.85058 38.1559 9.78013L37.6028 6.39561L39.9461 3.99843C39.9948 3.94827 40.0123 3.87369 39.9912 3.80588Z" fill="#FFB800"/>
<path d="M54.9912 3.80588C54.9701 3.73788 54.914 3.68828 54.8466 3.67795L51.6085 3.18409L50.1604 0.104821C50.1304 0.040576 50.0681 0 50 0C49.932 0 49.8696 0.040576 49.8397 0.104821L48.3914 3.18428L45.1534 3.67814C45.0859 3.68847 45.03 3.73788 45.0087 3.80607C44.9878 3.87388 45.0052 3.94865 45.054 3.99843L47.3973 6.39542L46.844 9.78013C46.8325 9.85058 46.8601 9.92177 46.915 9.96385C46.9704 10.0063 47.0436 10.0118 47.1035 9.97813L50 8.38026L52.8962 9.97813C52.9223 9.99259 52.9512 9.99973 52.9796 9.99973C53.0167 9.99973 53.0535 9.98771 53.0849 9.96385C53.14 9.92177 53.1676 9.85058 53.1559 9.78013L52.6028 6.39561L54.9461 3.99843C54.9948 3.94827 55.0123 3.87369 54.9912 3.80588Z" fill="#FFB800"/>
<path d="M69.9912 3.80588C69.9701 3.73788 69.914 3.68828 69.8466 3.67795L66.6085 3.18409L65.1604 0.104821C65.1304 0.040576 65.0681 0 65 0C64.932 0 64.8696 0.040576 64.8397 0.104821L63.3914 3.18428L60.1534 3.67814C60.0859 3.68847 60.03 3.73788 60.0087 3.80607C59.9878 3.87388 60.0052 3.94865 60.054 3.99843L62.3973 6.39542L61.844 9.78013C61.8325 9.85058 61.8601 9.92177 61.915 9.96385C61.9704 10.0063 62.0436 10.0118 62.1035 9.97813L65 8.38026L67.8962 9.97813C67.9223 9.99259 67.9512 9.99973 67.9796 9.99973C68.0167 9.99973 68.0535 9.98771 68.0849 9.96385C68.14 9.92177 68.1676 9.85058 68.1559 9.78013L67.6028 6.39561L69.9461 3.99843C69.9948 3.94827 70.0123 3.87369 69.9912 3.80588Z" fill="#FFB800"/>
</svg>
